<svg xmlns="http://www.w3.org/2000/svg" width="338" height="420">
    <defs>
        <linearGradient id="a" x1="100%" x2="0%" y1="0%" y2="0%">
            <stop offset="0%" stop-color="#E3EFFD"/>
            <stop offset="100%" stop-color="#FFF"/>
        </linearGradient>
        <filter id="b" width="160" height="97" x="81" y="132" filterUnits="userSpaceOnUse">
            <feOffset in="SourceAlpha"/>
            <feGaussianBlur result="blurOut" stdDeviation="2.646"/>
            <feFlood flood-color="#FFF" result="floodOut"/>
            <feComposite in="floodOut" in2="blurOut" operator="atop"/>
            <feComponentTransfer>
                <feFuncA slope=".78" type="linear"/>
            </feComponentTransfer>
            <feMerge>
                <feMergeNode/>
                <feMergeNode in="SourceGraphic"/>
            </feMerge>
        </filter>
        <filter id="c">
            <feFlood flood-color="#E4E1FE" flood-opacity="1" result="floodOut"/>
            <feComposite in="floodOut" in2="SourceGraphic" operator="atop" result="compOut"/>
            <feBlend in="compOut" in2="SourceGraphic"/>
        </filter>
        <filter id="d">
            <feFlood flood-color="#FFF" flood-opacity="1" result="floodOut"/>
            <feComposite in="floodOut" in2="SourceGraphic" operator="atop" result="compOut"/>
            <feBlend in="compOut" in2="SourceGraphic"/>
        </filter>
        <linearGradient id="e" x1="0%" y1="0%" y2="0%">
            <stop offset="0%" stop-color="#F7FBFF"/>
            <stop offset="100%" stop-color="#E3EFFD"/>
        </linearGradient>
        <filter id="f">
            <feFlood flood-color="#4340D9" flood-opacity="1" result="floodOut"/>
            <feComposite in="floodOut" in2="SourceGraphic" operator="atop" result="compOut"/>
            <feBlend in="compOut" in2="SourceGraphic"/>
        </filter>
        <filter id="g">
            <feFlood flood-color="#2825BD" flood-opacity="1" result="floodOut"/>
            <feComposite in="floodOut" in2="SourceGraphic" operator="atop" result="compOut"/>
            <feBlend in="compOut" in2="SourceGraphic"/>
        </filter>
        <filter id="h">
            <feFlood flood-color="#4442D4" flood-opacity="1" result="floodOut"/>
            <feComposite in="floodOut" in2="SourceGraphic" operator="atop" result="compOut"/>
            <feBlend in="compOut" in2="SourceGraphic"/>
        </filter>
        <linearGradient id="i" x1="0%" x2="3.49%" y1="0%" y2="99.939%">
            <stop offset="0%" stop-color="#FFF" stop-opacity="0"/>
            <stop offset="100%" stop-color="#FFF"/>
        </linearGradient>
        <filter id="j">
            <feFlood flood-color="#4340D9" flood-opacity="1" result="floodOut"/>
            <feComposite in="floodOut" in2="SourceGraphic" operator="atop" result="compOut"/>
            <feBlend in="compOut" in2="SourceGraphic"/>
        </filter>
        <filter id="k">
            <feFlood flood-color="#E3EFFD" flood-opacity="1" result="floodOut"/>
            <feComposite in="floodOut" in2="SourceGraphic" operator="atop" result="compOut"/>
            <feBlend in="compOut" in2="SourceGraphic"/>
        </filter>
        <filter id="l">
            <feFlood flood-color="#F5FAFF" flood-opacity="1" result="floodOut"/>
            <feComposite in="floodOut" in2="SourceGraphic" operator="atop" result="compOut"/>
            <feBlend in="compOut" in2="SourceGraphic"/>
        </filter>
        <filter id="m">
            <feFlood flood-color="#C7DDF9" flood-opacity="1" result="floodOut"/>
            <feComposite in="floodOut" in2="SourceGraphic" operator="atop" result="compOut"/>
            <feBlend in="compOut" in2="SourceGraphic"/>
        </filter>
        <filter id="n">
            <feFlood flood-color="#FFF" flood-opacity="1" result="floodOut"/>
            <feComposite in="floodOut" in2="SourceGraphic" operator="atop" result="compOut"/>
            <feBlend in="compOut" in2="SourceGraphic"/>
        </filter>
        <filter id="o">
            <feFlood flood-color="#FFF" flood-opacity="1" result="floodOut"/>
            <feComposite in="floodOut" in2="SourceGraphic" operator="atop" result="compOut"/>
            <feBlend in="compOut" in2="SourceGraphic"/>
        </filter>
        <filter id="p">
            <feFlood flood-color="#FFF" flood-opacity="1" result="floodOut"/>
            <feComposite in="floodOut" in2="SourceGraphic" operator="atop" result="compOut"/>
            <feBlend in="compOut" in2="SourceGraphic"/>
        </filter>
        <filter id="q">
            <feFlood flood-color="#FFF" flood-opacity="1" result="floodOut"/>
            <feComposite in="floodOut" in2="SourceGraphic" operator="atop" result="compOut"/>
            <feBlend in="compOut" in2="SourceGraphic"/>
        </filter>
        <filter id="r">
            <feFlood flood-color="#FFF" flood-opacity="1" result="floodOut"/>
            <feComposite in="floodOut" in2="SourceGraphic" operator="atop" result="compOut"/>
            <feBlend in="compOut" in2="SourceGraphic"/>
        </filter>
        <filter id="s">
            <feFlood flood-color="#FFF" flood-opacity="1" result="floodOut"/>
            <feComposite in="floodOut" in2="SourceGraphic" operator="atop" result="compOut"/>
            <feBlend in="compOut" in2="SourceGraphic"/>
        </filter>
        <filter id="t">
            <feFlood flood-color="#FFF" flood-opacity="1" result="floodOut"/>
            <feComposite in="floodOut" in2="SourceGraphic" operator="atop" result="compOut"/>
            <feBlend in="compOut" in2="SourceGraphic"/>
        </filter>
        <filter id="u">
            <feFlood flood-color="#FFF" flood-opacity="1" result="floodOut"/>
            <feComposite in="floodOut" in2="SourceGraphic" operator="atop" result="compOut"/>
            <feBlend in="compOut" in2="SourceGraphic"/>
        </filter>
        <filter id="v">
            <feFlood flood-color="#FFF" flood-opacity="1" result="floodOut"/>
            <feComposite in="floodOut" in2="SourceGraphic" operator="atop" result="compOut"/>
            <feBlend in="compOut" in2="SourceGraphic"/>
        </filter>
        <filter id="w">
            <feFlood flood-color="#FFF" flood-opacity="1" result="floodOut"/>
            <feComposite in="floodOut" in2="SourceGraphic" operator="atop" result="compOut"/>
            <feBlend in="compOut" in2="SourceGraphic"/>
        </filter>
        <filter id="x">
            <feFlood flood-color="#C7DDF9" flood-opacity="1" result="floodOut"/>
            <feComposite in="floodOut" in2="SourceGraphic" operator="atop" result="compOut"/>
            <feBlend in="compOut" in2="SourceGraphic"/>
        </filter>
        <filter id="y">
            <feFlood flood-color="#E2EFFC" flood-opacity="1" result="floodOut"/>
            <feComposite in="floodOut" in2="SourceGraphic" operator="atop" result="compOut"/>
            <feBlend in="compOut" in2="SourceGraphic"/>
        </filter>
        <filter id="z">
            <feFlood flood-color="#FFF" flood-opacity="1" result="floodOut"/>
            <feComposite in="floodOut" in2="SourceGraphic" operator="atop" result="compOut"/>
            <feBlend in="compOut" in2="SourceGraphic"/>
        </filter>
        <filter id="A">
            <feFlood flood-color="#4340D9" flood-opacity="1" result="floodOut"/>
            <feComposite in="floodOut" in2="SourceGraphic" operator="atop" result="compOut"/>
            <feBlend in="compOut" in2="SourceGraphic"/>
        </filter>
        <filter id="B">
            <feFlood flood-color="#928FFD" flood-opacity="1" result="floodOut"/>
            <feComposite in="floodOut" in2="SourceGraphic" operator="atop" result="compOut"/>
            <feBlend in="compOut" in2="SourceGraphic"/>
        </filter>
        <filter id="C">
            <feFlood flood-color="#CEE3FA" flood-opacity="1" result="floodOut"/>
            <feComposite in="floodOut" in2="SourceGraphic" operator="atop" result="compOut"/>
            <feBlend in="compOut" in2="SourceGraphic"/>
        </filter>
        <filter id="D">
            <feFlood flood-color="#F2F7FD" flood-opacity="1" result="floodOut"/>
            <feComposite in="floodOut" in2="SourceGraphic" operator="atop" result="compOut"/>
            <feBlend in="compOut" in2="SourceGraphic"/>
        </filter>
        <filter id="E">
            <feFlood flood-color="#4340D9" flood-opacity="1" result="floodOut"/>
            <feComposite in="floodOut" in2="SourceGraphic" operator="atop" result="compOut"/>
            <feBlend in="compOut" in2="SourceGraphic"/>
        </filter>
        <filter id="F">
            <feFlood flood-color="#4340D9" flood-opacity="1" result="floodOut"/>
            <feComposite in="floodOut" in2="SourceGraphic" operator="atop" result="compOut"/>
            <feBlend in="compOut" in2="SourceGraphic"/>
        </filter>
        <filter id="G">
            <feFlood flood-color="#4340D9" flood-opacity="1" result="floodOut"/>
            <feComposite in="floodOut" in2="SourceGraphic" operator="atop" result="compOut"/>
            <feBlend in="compOut" in2="SourceGraphic"/>
        </filter>
        <filter id="H">
            <feFlood flood-color="#4340D9" flood-opacity="1" result="floodOut"/>
            <feComposite in="floodOut" in2="SourceGraphic" operator="atop" result="compOut"/>
            <feBlend in="compOut" in2="SourceGraphic"/>
        </filter>
        <filter id="I">
            <feFlood flood-color="#4340D9" flood-opacity="1" result="floodOut"/>
            <feComposite in="floodOut" in2="SourceGraphic" operator="atop" result="compOut"/>
            <feBlend in="compOut" in2="SourceGraphic"/>
        </filter>
        <filter id="J">
            <feFlood flood-color="#4340D9" flood-opacity="1" result="floodOut"/>
            <feComposite in="floodOut" in2="SourceGraphic" operator="atop" result="compOut"/>
            <feBlend in="compOut" in2="SourceGraphic"/>
        </filter>
        <filter id="K">
            <feFlood flood-color="#3E3BD8" flood-opacity="1" result="floodOut"/>
            <feComposite in="floodOut" in2="SourceGraphic" operator="atop" result="compOut"/>
            <feBlend in="compOut" in2="SourceGraphic"/>
        </filter>
        <filter id="L">
            <feFlood flood-color="#FFF" flood-opacity="1" result="floodOut"/>
            <feComposite in="floodOut" in2="SourceGraphic" operator="atop" result="compOut"/>
            <feBlend in="compOut" in2="SourceGraphic"/>
        </filter>
        <filter id="M">
            <feFlood flood-color="#A3A1FF" flood-opacity="1" result="floodOut"/>
            <feComposite in="floodOut" in2="SourceGraphic" operator="atop" result="compOut"/>
            <feBlend in="compOut" in2="SourceGraphic"/>
        </filter>
        <filter id="N">
            <feFlood flood-color="#A3A1FF" flood-opacity="1" result="floodOut"/>
            <feComposite in="floodOut" in2="SourceGraphic" operator="atop" result="compOut"/>
            <feBlend in="compOut" in2="SourceGraphic"/>
        </filter>
        <filter id="O">
            <feFlood flood-color="#ACD0FF" flood-opacity="1" result="floodOut"/>
            <feComposite in="floodOut" in2="SourceGraphic" operator="atop" result="compOut"/>
            <feBlend in="compOut" in2="SourceGraphic"/>
        </filter>
        <filter id="P">
            <feFlood flood-color="#3E3BD8" flood-opacity="1" result="floodOut"/>
            <feComposite in="floodOut" in2="SourceGraphic" operator="atop" result="compOut"/>
            <feBlend in="compOut" in2="SourceGraphic"/>
        </filter>
        <filter id="Q">
            <feFlood flood-color="#ACD0FF" flood-opacity="1" result="floodOut"/>
            <feComposite in="floodOut" in2="SourceGraphic" operator="atop" result="compOut"/>
            <feBlend in="compOut" in2="SourceGraphic"/>
        </filter>
        <filter id="R">
            <feFlood flood-color="#ACD0FF" flood-opacity="1" result="floodOut"/>
            <feComposite in="floodOut" in2="SourceGraphic" operator="atop" result="compOut"/>
            <feBlend in="compOut" in2="SourceGraphic"/>
        </filter>
        <filter id="S">
            <feFlood flood-color="#4340D9" flood-opacity="1" result="floodOut"/>
            <feComposite in="floodOut" in2="SourceGraphic" operator="atop" result="compOut"/>
            <feBlend in="compOut" in2="SourceGraphic"/>
        </filter>
    </defs>
    <path fill="#4340D9" fill-rule="evenodd" d="M181.91 247.136l113.135 64.091c11.361 6.436 11.361 16.87 0 23.306L181.91 398.624c-11.361 6.436-29.78 6.436-41.14 0L27.634 333.038c-11.361-6.436-11.361-16.87 0-23.306l113.136-62.596c11.36-6.436 29.779-6.436 41.14 0z"/>
    <path fill="#4340D9" fill-rule="evenodd" d="M19.125 313H27.5v10.187h-8.375V313z"/>
    <path fill="#F5FAFF" fill-rule="evenodd" d="M303.027 316.976c-.595 3.706-3.388 7.321-8.392 10.158l-113.121 64.143c-11.359 6.441-29.776 6.441-41.135 0l-113.12-66.388c-5.004-2.837-7.797-6.451-8.393-10.156l-.105-.001v-1.25a8.706 8.706 0 0 1 0-.511v-77.252h-.23v-56.907h284.438v51.591h.163v84.808a9.05 9.05 0 0 1 0 .521v1.245l-.105-.001z"/>
    <path fill="url(#a)" d="M303.027 316.976c-.595 3.706-3.388 7.321-8.392 10.158l-113.121 64.143c-11.359 6.441-29.776 6.441-41.135 0l-113.12-66.388c-5.004-2.837-7.797-6.451-8.393-10.156l-.105-.001v-1.25a8.706 8.706 0 0 1 0-.511v-77.252h-.23v-56.907h284.438v51.591h.163v84.808a9.05 9.05 0 0 1 0 .521v1.245l-.105-.001z"/>
    <path fill="#4340D9" fill-rule="evenodd" d="M181.514 104.844l113.121 64.144c11.359 6.44 11.359 16.883 0 23.324l-113.121 64.143c-11.359 6.441-29.776 6.441-41.135 0l-113.12-65.639c-11.36-6.441-11.36-16.884 0-23.325l113.12-62.647c11.359-6.441 29.776-6.441 41.135 0z"/>
    <path fill="#E4DFF8" fill-opacity="0" fill-rule="evenodd" stroke="#3533B6" stroke-width="3" d="M72.116 168.695l67.595-38.928c11.666-6.718 30.58-6.718 42.246 0l67.595 38.928c11.666 6.719 11.666 17.612 0 24.33l-67.595 38.928c-11.666 6.719-30.58 6.719-42.246 0l-67.595-38.928c-11.666-6.718-11.666-17.611 0-24.33z"/>
    <path fill="#4340D9" fill-rule="evenodd" d="M170.776 140.87l58.032 33.249c5.827 3.339 5.827 8.753 0 12.091l-58.032 33.25c-5.827 3.339-15.275 3.339-21.102 0l-58.031-33.25c-5.828-3.338-5.828-8.752 0-12.091l58.031-33.249c5.827-3.339 15.275-3.339 21.102 0z" filter="url(#c)"/>
    <path fill="#4340D9" fill-rule="evenodd" d="M170.534 147.664l52.719 30.875c5.294 3.1 5.294 8.126 0 11.227l-52.719 30.875c-5.294 3.1-13.877 3.1-19.171 0l-52.719-30.875c-5.293-3.101-5.293-8.127 0-11.227l52.719-30.875c5.294-3.1 13.877-3.1 19.171 0z" filter="url(#d)"/>
    <path fill="#FFF" fill-rule="evenodd" d="M99.853 177.938l26.616 16.277-10.317 6.074-26.616-16.278 10.317-6.073zM204.763 168.111l27.211 15.727-9.987 6.21-27.211-15.726 9.987-6.211z"/>
    <path fill="#9696F1" fill-rule="evenodd" d="M201.375 136.5h-.102c-.164.791-.771 1.557-1.828 2.165l-34.006 19.578c-2.519 1.45-6.604 1.45-9.123 0l-34.005-19.578c-1.458-.839-2.045-1.978-1.816-3.071h-.058V89.031h80.001v.875h.937V136.5z"/>
    <path fill="url(#e)" d="M201.375 136.5h-.102c-.164.791-.771 1.557-1.828 2.165l-34.006 19.578c-2.519 1.45-6.604 1.45-9.123 0l-34.005-19.578c-1.458-.839-2.045-1.978-1.816-3.071h-.058V89.031h80.001v.875h.937V136.5z"/>
    <path fill="#4340D9" fill-rule="evenodd" d="M165.439 67.252l34.006 19.577c2.519 1.451 2.519 3.802 0 5.253l-34.006 19.577c-2.519 1.45-6.604 1.45-9.123 0l-34.005-19.577c-2.52-1.451-2.52-3.802 0-5.253l34.005-19.577c2.519-1.45 6.604-1.45 9.123 0z" filter="url(#f)"/>
    <path fill="#4340D9" fill-rule="evenodd" d="M165.439 61.265l34.006 19.578c2.519 1.45 2.519 3.801 0 5.252l-34.006 19.577c-2.519 1.451-6.604 1.451-9.123 0l-34.005-19.577c-2.52-1.451-2.52-3.802 0-5.252l34.005-19.578c2.519-1.45 6.604-1.45 9.123 0z" filter="url(#g)" opacity=".369"/>
    <g fill="none" fill-rule="evenodd" stroke="#FFF" filter="url(#h)">
        <path stroke-width="2" d="M138.586 114.131c4.519 2.609 8.181 8.911 8.181 14.075s-3.662 7.235-8.181 4.626c-4.518-2.609-8.181-8.911-8.181-14.075s3.663-7.235 8.181-4.626z"/>
        <path stroke-width="1.5" d="M145.266 117.969l1.5 2.598-14.613 8.436-1.5-2.598 14.613-8.436z"/>
    </g>
    <path fill="#FFF" fill-rule="evenodd" d="M232.656 176.688c-.65 1.422-1.91 2.767-3.805 3.884l-57.458 33.843c-5.769 3.399-15.124 3.399-20.893 0l-57.458-33.843c-1.895-1.117-3.155-2.462-3.805-3.884h-1.956V.5h145.907v176.188h-.532z" opacity=".141"/>
    <path fill="url(#i)" d="M232.656 176.688c-.65 1.422-1.91 2.767-3.805 3.884l-57.458 33.843c-5.769 3.399-15.124 3.399-20.893 0l-57.458-33.843c-1.895-1.117-3.155-2.462-3.805-3.884h-1.956V.5h145.907v176.188h-.532z"/>
    <path fill="#E3EFFD" fill-rule="evenodd" d="M196.827 382.772l88.642-50.715c2.967-1.697 8.299-1.302 11.91.882l34.863 21.097c3.61 2.184 4.132 5.331 1.165 7.029l-88.642 50.715c-2.967 1.697-8.299 1.302-11.91-.882l-34.863-21.097c-3.61-2.184-4.132-5.331-1.165-7.029z" filter="url(#j)"/>
    <path fill="#4340D9" fill-rule="evenodd" d="M326.938 347.75h8.375v10.188h-8.375V347.75z"/>
    <path fill="#F7FBFF" fill-rule="evenodd" d="M334.006 354.788l-88.643 50.716c-2.967 1.697-8.299 1.302-11.909-.882l-34.863-21.096c-3.61-2.185-4.132-5.332-1.165-7.03l53.324-30.508v-26.019h84.875v30.671c.676 1.557.179 3.119-1.619 4.148z"/>
    <path fill="#C3DDF7" fill-rule="evenodd" d="M199.303 351.348l36.147 20.472c2.42 1.371 4.382 4.383 4.382 6.728v24.416c0 2.345-1.962 3.135-4.382 1.765l-36.147-20.472c-2.42-1.371-4.381-4.383-4.381-6.728v-24.416c0-2.345 1.961-3.135 4.381-1.765z" filter="url(#k)"/>
    <path fill="#E3EFFD" fill-rule="evenodd" d="M197.426 345.143l88.642-50.715c2.967-1.698 8.299-1.303 11.909.882l34.864 21.096c3.61 2.185 4.132 5.331 1.165 7.029l-88.643 50.715c-2.967 1.698-8.299 1.303-11.909-.882l-34.863-21.096c-3.61-2.185-4.132-5.332-1.165-7.029z" filter="url(#l)"/>
    <path fill="#E3EFFD" fill-rule="evenodd" d="M239.853 340.698l46.039-25.881c1.541-.867 4.31-.601 6.185.594l18.108 11.535c1.875 1.195 2.145 2.865.604 3.732l-46.038 25.881c-1.541.867-4.311.601-6.186-.594l-18.107-11.535c-1.875-1.195-2.146-2.865-.605-3.732z" filter="url(#m)"/>
    <path fill="#E3EFFD" fill-rule="evenodd" d="M266.92 332.642l20.743-11.773c.695-.394 1.942-.273 2.787.27l8.159 5.248c.845.543.967 1.303.272 1.697l-20.743 11.774c-.694.394-1.942.273-2.787-.271l-8.158-5.247c-.845-.544-.967-1.303-.273-1.698z" filter="url(#n)"/>
    <path fill="#A3A1FF" fill-rule="evenodd" d="M250.832 341.956c.941-.459 2.354-.493 3.155-.076.801.417.688 1.127-.254 1.586-.941.458-2.354.492-3.155.075-.801-.417-.687-1.127.254-1.585z" filter="url(#o)"/>
    <path fill="#A3A1FF" fill-rule="evenodd" d="M255.314 339.71c.941-.458 2.353-.492 3.154-.075.802.417.688 1.127-.253 1.585-.942.459-2.354.493-3.155.076-.801-.417-.688-1.127.254-1.586z" filter="url(#p)"/>
    <path fill="#A3A1FF" fill-rule="evenodd" d="M259.048 337.465c.941-.459 2.354-.492 3.155-.076.801.417.687 1.127-.254 1.586-.941.459-2.354.493-3.155.076-.801-.417-.687-1.127.254-1.586z" filter="url(#q)"/>
    <path fill="#A3A1FF" fill-rule="evenodd" d="M255.314 344.201c.941-.459 2.353-.493 3.154-.076.802.417.688 1.127-.253 1.586-.942.458-2.354.492-3.155.075-.801-.417-.688-1.127.254-1.585z" filter="url(#r)"/>
    <path fill="#A3A1FF" fill-rule="evenodd" d="M259.795 341.956c.941-.459 2.354-.493 3.155-.076.801.417.687 1.127-.254 1.586-.941.458-2.354.492-3.155.075-.801-.417-.687-1.127.254-1.585z" filter="url(#s)"/>
    <path fill="#A3A1FF" fill-rule="evenodd" d="M264.276 339.71c.942-.458 2.354-.492 3.155-.075.802.417.688 1.127-.253 1.585-.942.459-2.354.493-3.155.076-.801-.417-.688-1.127.253-1.586z" filter="url(#t)"/>
    <path fill="#A3A1FF" fill-rule="evenodd" d="M259.795 346.446c.941-.459 2.354-.493 3.155-.076.801.417.687 1.127-.254 1.586-.941.458-2.354.492-3.155.075-.801-.417-.687-1.127.254-1.585z" filter="url(#u)"/>
    <path fill="#A3A1FF" fill-rule="evenodd" d="M264.276 344.201c.942-.459 2.354-.493 3.155-.076.802.417.688 1.127-.253 1.586-.942.458-2.354.492-3.155.075-.801-.417-.688-1.127.253-1.585z" filter="url(#v)"/>
    <path fill="#A3A1FF" fill-rule="evenodd" d="M268.758 341.956c.941-.459 2.354-.493 3.155-.076.801.417.687 1.127-.254 1.586-.941.458-2.354.492-3.155.075-.801-.417-.687-1.127.254-1.585z" filter="url(#w)"/>
    <path fill="#4340D9" fill-rule="evenodd" d="M222.162 277.021l47.267-27.047c2.655-1.519 4.807 1.261 4.807 6.208v37.326c0 4.947-2.152 10.189-4.807 11.708l-47.267 27.047c-2.654 1.519-4.806-1.261-4.806-6.208v-37.326c0-4.947 2.152-10.189 4.806-11.708z" filter="url(#x)"/>
    <path fill="#4340D9" fill-rule="evenodd" d="M225.882 278.51l47.267-27.046c2.654-1.519 4.806 1.26 4.806 6.207v37.326c0 4.947-2.152 10.19-4.806 11.708l-47.267 27.047c-2.655 1.519-4.807-1.26-4.807-6.208v-37.325c0-4.948 2.152-10.19 4.807-11.709z" filter="url(#y)" opacity=".502"/>
    <path fill="#265CE8" fill-rule="evenodd" d="M237.489 290.738l11.009-13.171 11.004 1.717.151 14.47-11.306 13.151-10.858-3.588v-12.579z" filter="url(#z)"/>
    <path fill="#265CE8" fill-rule="evenodd" d="M243.217 291.645v4.905s-.199 1.912 1.809 2.243c2.009.331 3.769.683 3.769.683l4.372-5.223s1.059-1.104 1.206-3.185c.147-2.081 0-5.582 0-5.582l-5.427 1.561-5.729 4.598z" filter="url(#A)"/>
    <path fill="#265CE8" fill-rule="evenodd" d="M243.217 291.476l5.578.896 5.578-6.886-5.427-.807-5.879 6.709" filter="url(#B)"/>
    <path fill="#4340D9" fill-rule="evenodd" d="M33.538 181.343l99.23 57.76c4.747 2.692 8.595 8.988 8.595 14.064v106.108c0 5.076-3.848 7.009-8.595 4.317l-99.23-57.76c-4.747-2.691-8.595-8.988-8.595-14.063V185.66c0-5.076 3.848-7.008 8.595-4.317z" filter="url(#C)"/>
    <path fill="#4340D9" fill-rule="evenodd" d="M29.218 183.135l99.23 57.76c4.747 2.691 8.595 8.988 8.595 14.063v106.109c0 5.076-3.848 7.009-8.595 4.317l-99.23-57.76c-4.747-2.692-8.595-8.988-8.595-14.064V187.452c0-5.076 3.848-7.009 8.595-4.317z" filter="url(#D)" opacity=".549"/>
    <path fill="none" fill-rule="evenodd" stroke="#FFF" stroke-width="2" d="M48.563 263.566c7.422 4.483 12.692 13.615 12.692 22.244 0 8.628-5.27 13.485-12.692 9.002-7.422-4.483-13.439-15.112-13.439-23.741 0-8.628 6.017-11.989 13.439-7.505z"/>
    <path fill="#3E3BD8" fill-rule="evenodd" d="M47.935 263.186v2.482s3.359.87 6.139 5.827c2.781 4.957 0 0 0 0l2.659.049s-2.229-4.642-8.798-8.358z"/>
    <path fill="none" fill-rule="evenodd" stroke="#FFF" stroke-width="2" d="M79.717 282.087c7.422 4.483 13.439 14.364 13.439 22.993 0 8.628-6.017 12.737-13.439 8.254-7.422-4.484-13.439-15.113-13.439-23.741 0-8.629 6.017-11.989 13.439-7.506z"/>
    <path fill="#3E3BD8" fill-rule="evenodd" d="M92.402 299.514c-1.825-6.862-6.744-14.09-13.313-17.806 0 0 .054 3.122 0 3.08 2.914 1.923 7.75 5.818 10.416 13.798"/>
    <path fill="#A3A1FF" fill-rule="evenodd" d="M107.471 300.44l.005.003c1.802 1.088 3.263 3.671 3.263 5.767 0 2.097-1.461 2.914-3.263 1.826l-.005-.004c-1.802-1.088-3.263-3.67-3.263-5.767 0-2.096 1.461-2.914 3.263-1.825z" filter="url(#E)"/>
    <path fill="#A3A1FF" fill-rule="evenodd" d="M107.471 310.077l.005.003c1.802 1.088 3.263 3.671 3.263 5.767 0 2.097-1.461 2.914-3.263 1.825l-.005-.003c-1.802-1.088-3.263-3.67-3.263-5.767 0-2.097 1.461-2.914 3.263-1.825z" filter="url(#F)"/>
    <path fill="#A3A1FF" fill-rule="evenodd" d="M107.471 320.589l.005.004c1.802 1.088 3.263 3.67 3.263 5.767 0 2.097-1.461 2.914-3.263 1.825l-.005-.003c-1.802-1.088-3.263-3.671-3.263-5.767 0-2.097 1.461-2.914 3.263-1.826z" filter="url(#G)"/>
    <path fill="#FFF" fill-rule="evenodd" d="M116.514 315.539l.005.003c1.802 1.089 3.263 3.671 3.263 5.767 0 2.097-1.461 2.914-3.263 1.826l-.005-.003c-1.802-1.089-3.263-3.671-3.263-5.768 0-2.096 1.461-2.913 3.263-1.825z" filter="url(#H)"/>
    <path fill="#A3A1FF" fill-rule="evenodd" d="M116.514 326.052l.005.003c1.802 1.088 3.263 3.671 3.263 5.767 0 2.097-1.461 2.914-3.263 1.826l-.005-.004c-1.802-1.088-3.263-3.67-3.263-5.767 0-2.096 1.461-2.914 3.263-1.825z" filter="url(#I)"/>
    <path fill="#A3A1FF" fill-rule="evenodd" d="M125.557 331.514l.005.003c1.802 1.089 3.263 3.671 3.263 5.768 0 2.096-1.461 2.913-3.263 1.825l-.005-.003c-1.802-1.089-3.263-3.671-3.263-5.767 0-2.097 1.461-2.914 3.263-1.826z" filter="url(#J)"/>
    <path fill="#A3A1FF" fill-rule="evenodd" d="M38.215 206.456l85.027 49.116c2.532 1.529 4.585 5.158 4.585 8.103v30.215c0 2.946-2.053 4.095-4.585 2.565l-85.027-49.116c-2.532-1.529-4.585-5.157-4.585-8.104v-30.214c0-2.946 2.053-4.095 4.585-2.565z" filter="url(#K)"/>
    <path fill="none" fill-rule="evenodd" stroke="#F00" stroke-width="1.5" d="M38.056 238.41s5.474-11.955 11.521-8.303c6.047 3.654 15.248 30.368 24.022 25.185 8.773-5.183 9.934-15.379 17.893-10.571 7.96 4.808 13.394 24.094 16.914 30.425 3.519 6.33 10.017 7.847 11.52 6.958" filter="url(#L)"/>
    <path fill="none" stroke="#F00" stroke-width="1.5" d="M38.056 238.41s5.474-11.955 11.521-8.303c6.047 3.654 15.248 30.368 24.022 25.185 8.773-5.183 9.934-15.379 17.893-10.571 7.96 4.808 13.394 24.094 16.914 30.425 3.519 6.33 10.017 7.847 11.52 6.958"/>
    <path fill="#4340D9" fill-rule="evenodd" d="M84.657 243.363l.004.002c1.317.796 2.384 2.683 2.384 4.215s-1.067 2.129-2.384 1.334l-.004-.003c-1.317-.795-2.384-2.682-2.384-4.214 0-1.533 1.067-2.129 2.384-1.334z" filter="url(#M)"/>
    <path fill="#4340D9" fill-rule="evenodd" d="M40.307 233.323l.005.003c1.86 1.049 3.367 3.536 3.367 5.556s-1.507 2.807-3.367 1.759l-.005-.003c-1.859-1.049-3.366-3.537-3.366-5.557 0-2.02 1.507-2.807 3.366-1.758z" filter="url(#N)"/>
    <path fill="#C6DDF9" fill-rule="evenodd" d="M22.891 384.094c12.642 0 22.89 5.575 22.89 12.453 0 6.878-10.248 12.453-22.89 12.453C10.249 409 0 403.425 0 396.547c0-6.878 10.249-12.453 22.891-12.453z" opacity=".4"/>
    <path fill="#7674FA" fill-rule="evenodd" d="M32.842 401.03s-3.841 1.807-4.976-.498c-1.135-2.305-.497-4.482-.497-4.482s8.318-4.705 10.449-2.49c3.153 3.463-4.976 7.47-4.976 7.47zm-18.684-6.678s-3.867 1.852-5.01-.51c-1.142-2.362-.501-4.593-.501-4.593s8.376-4.823 10.521-2.552c3.175 3.549-5.01 7.655-5.01 7.655z"/>
    <path fill="#3F3CD8" fill-rule="evenodd" d="M33.838 347.249s.8 6.887.995 24.899c0 31.749-5.047 28.882-5.972 28.882-2.874 0-1.748-24.444-1.99-26.891-.242-2.447-2.893-15.935-5.971-15.935-4.956 0-3.543 35.854-10.948 35.854-3.094 0 .33-22.774 0-27.886-1.149-10.48 0-24.899 0-24.899l23.886 5.976z"/>
    <path fill="#3F3CD8" fill-rule="evenodd" d="M8.149 306.412s-4.809 13.17-3.345 19.33c3.578 15.048 8.635 20.511 8.635 20.511l-5.29-39.841z"/>
    <path fill="#265CE8" fill-rule="evenodd" d="M59.713 302.929c2.918-5.997 7.139-6.961 5.376-7.975-2.856-1.644-5.592.56-7.864 2.497-2.902 2.475-.684 7.211 2.488 5.478z" filter="url(#O)"/>
    <path fill="#7674FA" fill-rule="evenodd" d="M25.432 306.354s-6.4-3.568-9.661-3.879c-3.261-.311-5.623 1.423-6.569 2.364-.946.942-3.768 7.062-1.16 15.093 1.955 6.019 2.528 22.129 2.154 21.444 1.629 2.976 6.669 5.009 8.473 5.647 9.598 3.401 15.551.663 15.457.97.275-.9-1.45-11.413-1.284-13.194 1.597-17.147-.278-23.316-3.483-25.894-1.819-1.463-3.927-2.551-3.927-2.551z"/>
    <path fill="#7674FA" fill-rule="evenodd" d="M31.349 319.362c-3.024-.789-8.496-14.702-2.488-10.457 2.522 1.782 5.005 1.585 5.474 1.494 3.665-.715 8.12-1.412 11.943-2.988 5.765-2.377 9.018-7.208 9.018-7.208s4.904-.047 4.839 2.894c-.011.506-5.028 6.855-11.619 11.084-6.946 4.456-15.284 5.672-17.167 5.181z"/>
    <path fill="#B4D8FF" fill-rule="evenodd" d="M30.151 292.966s.827 7.04-.923 7.756c-1.75.717-4.127 1.616-3.914 2.921.213 1.305 0 2.92 0 2.92s-.186 1.085-2.936 1.947c-2.75.863-3.72.178-4.893-.973-2.356-2.312-.057-4.504-.057-4.504s2.107-1.559 2.014-3.284c-.051-.933 2.051-5.224 4.941-6.779 2.456-1.322 5.768-.004 5.768-.004z"/>
    <path fill="#3F3CD8" fill-rule="evenodd" d="M30.842 288.468s1.138 2.535 0 3.82c-1.138 1.286-4.387 2.062-5.556 2.514-1.249.484-1.814 3.738-2.939 4.929-.739.781-2.672 1.033-3.892.197-2.133-1.463-3.622-11.502.953-13.369 7.869-3.211 11.434 1.909 11.434 1.909z" filter="url(#P)"/>
    <path fill="#C6DDF9" fill-rule="evenodd" d="M313.703 393.75c12.59 0 22.797 5.541 22.797 12.375S326.293 418.5 313.703 418.5s-22.797-5.541-22.797-12.375 10.207-12.375 22.797-12.375z" opacity=".4"/>
    <path fill="#7674FA" fill-rule="evenodd" d="M327.388 403.43c-1.138 2.349-4.99.508-4.99.508s-8.151-4.084-4.99-7.613c2.138-2.258 10.48 2.538 10.48 2.538s.638 2.218-.5 4.567zm-23.598 7.147s-8.097-3.984-4.957-7.427c2.123-2.203 10.408 2.476 10.408 2.476s.635 2.164-.495 4.456c-1.131 2.292-4.956.495-4.956.495z"/>
    <path fill="#3F3CD8" fill-rule="evenodd" d="M302.798 357.1s-.797 6.848-.991 24.758c0 31.57 5.026 28.719 5.947 28.719 2.863 0 1.742-24.305 1.983-26.738.241-2.434 2.881-15.846 5.947-15.846 4.936 0 3.529 35.652 10.904 35.652 3.081 0-.328-22.646 0-27.729 1.144-10.42 0-24.758 0-24.758l-23.79 5.942zM326.588 314.021s5.919 9.224 4.46 15.35c-3.563 14.964-34.197-.495-34.197-.495l29.737-14.855z"/>
    <path fill="#265CE8" fill-rule="evenodd" d="M282.607 334.229c-5.855-3.127-9.822-1.44-8.993-3.285 1.345-2.991 4.839-2.813 7.802-2.578 3.786.299 4.761 5.408 1.191 5.863z" filter="url(#Q)"/>
    <path fill="#265CE8" fill-rule="evenodd" d="M298.466 331.258c-5.854-3.126-9.821-1.439-8.992-3.285 1.344-2.991 4.838-2.813 7.802-2.578 3.785.299 4.761 5.408 1.19 5.863z" filter="url(#R)"/>
    <path fill="#7674FA" fill-rule="evenodd" d="M311.17 316.437s6.375-3.548 9.622-3.858c3.248-.309 4.358.011 5.3.947.942.936 4.995 8.426 2.398 16.411-1.947 5.985-2.518 22.005-2.145 21.323-1.622 2.96-6.643 4.981-8.439 5.616-9.56 3.381-15.489.658-15.396.964-.273-.895 1.445-11.348 1.28-13.119-1.591-17.051.277-23.185 3.469-25.749 1.811-1.454 3.911-2.535 3.911-2.535z"/>
    <path fill="#7674FA" fill-rule="evenodd" d="M307.535 331.706c3.011-.784 6.204-16.955.219-12.734-1.132.494-4.18 2.624-2.288 1.575-3.651-.71-8.772 14.847-12.58 13.28-5.742-2.363-7-3.205-7-3.205s-4.884-.048-4.819 2.878c.011.503 5.999 4.835 12.564 9.04 7.354-.668 12.028-10.345 13.904-10.834z"/>
    <path fill="#B4D8FF" fill-rule="evenodd" d="M306.47 303.124s-.824 7 .919 7.712c1.743.713 4.111 1.606 3.899 2.904-.212 1.298 0 2.904 0 2.904s.185 1.079 2.924 1.936c2.739.858 3.705.177 4.874-.968 2.346-2.298.056-4.478.056-4.478s-2.099-1.55-2.006-3.266c.05-.927-2.043-5.194-4.921-6.741-2.446-1.314-5.745-.003-5.745-.003z"/>
    <path fill="#3F3CD8" fill-rule="evenodd" d="M305.276 295.7s-1.093 5.501.506 6.75c1.598 1.249 4.369 2.05 5.533 2.5 1.244.48 1.808 3.716 2.928 4.9.736.777 2.661 1.028 3.876.196 2.125-1.454 3.608-11.437-.949-13.293-7.837-3.193-11.894-1.053-11.894-1.053z" filter="url(#S)"/>
</svg>
