<svg xmlns="http://www.w3.org/2000/svg" width="41" height="38">
    <defs>
        <filter id="a">
            <feFlood flood-color="#FFF" flood-opacity="1" result="floodOut"/>
            <feComposite in="floodOut" in2="SourceGraphic" operator="atop" result="compOut"/>
            <feBlend in="compOut" in2="SourceGraphic"/>
        </filter>
        <filter id="b">
            <feFlood flood-color="#FFF" flood-opacity="1" result="floodOut"/>
            <feComposite in="floodOut" in2="SourceGraphic" operator="atop" result="compOut"/>
            <feBlend in="compOut" in2="SourceGraphic"/>
        </filter>
        <filter id="c">
            <feFlood flood-color="#FFF" flood-opacity="1" result="floodOut"/>
            <feComposite in="floodOut" in2="SourceGraphic" operator="atop" result="compOut"/>
            <feBlend in="compOut" in2="SourceGraphic"/>
        </filter>
        <filter id="d">
            <feFlood flood-color="#3F3CD8" flood-opacity="1" result="floodOut"/>
            <feComposite in="floodOut" in2="SourceGraphic" operator="atop" result="compOut"/>
            <feBlend in="compOut" in2="SourceGraphic"/>
        </filter>
        <filter id="e">
            <feFlood flood-color="#817FFF" flood-opacity="1" result="floodOut"/>
            <feComposite in="floodOut" in2="SourceGraphic" operator="atop" result="compOut"/>
            <feBlend in="compOut" in2="SourceGraphic"/>
        </filter>
    </defs>
    <path fill="#0094FF" fill-rule="evenodd" d="M30.219 29.688h-.032a10.64 10.64 0 0 1-3.739-.686C25.636 34.1 21.233 38 15.906 38h-.031C9.972 38 5.187 33.215 5.187 27.312c0-3.359 1.553-6.353 3.977-8.312a10.662 10.662 0 0 1-3.977-8.313C5.187 4.785 9.972 0 15.875 0h.031c5.327 0 9.73 3.901 10.542 8.999a10.618 10.618 0 0 1 3.739-.686h.032c5.902 0 10.687 4.785 10.687 10.687 0 5.903-4.785 10.688-10.687 10.688z" filter="url(#a)" opacity=".702"/>
    <path fill="#0094FF" fill-rule="evenodd" d="M32.037 19.083a10.667 10.667 0 0 1 3.869 8.229C35.906 33.215 31.121 38 25.219 38c-5.357 0-9.78-3.945-10.555-9.085-1.23.494-2.57.773-3.976.773C4.785 29.688 0 24.903 0 19 0 13.098 4.785 8.313 10.688 8.313c1.484 0 2.898.303 4.183.851C15.612 3.985 20.054 0 25.437 0c5.903 0 10.688 4.785 10.688 10.687 0 3.41-1.602 6.439-4.088 8.396z" filter="url(#b)" opacity=".4"/>
    <path fill="#0094FF" fill-rule="evenodd" d="M20.659 36.962L5.192 27.98V10.018l15.467-8.982 15.466 8.982V27.98l-15.466 8.982z" filter="url(#c)"/>
    <path fill="#0094FF" fill-rule="evenodd" d="M12.665 14.328h15.572v6.437s.066 1.157-.623 2.077c-.689.919-7.059 4.775-7.059 4.775l-6.229-3.53s-1.163-.859-1.453-2.076c-.291-1.218-.208-2.284-.208-2.284v-5.399z" filter="url(#d)"/>
    <path fill="#FFF" fill-rule="evenodd" d="M20.449 9.76l7.786 4.672-7.786 4.672-7.786-4.672 7.786-4.672z" filter="url(#e)"/>
</svg>
