<svg xmlns="http://www.w3.org/2000/svg" viewBox="0 0 336.58 21.06" width="336" height="21"><path fill="#3d3ad8" d="M18.58,15.54a4.42,4.42,0,0,1-.6,2.33,4.94,4.94,0,0,1-1.64,1.64,8,8,0,0,1-2.44,1,12.73,12.73,0,0,1-2.94.34H0V.18h12.5a4.78,4.78,0,0,1,2.12.47,5.13,5.13,0,0,1,1.61,1.21,5.36,5.36,0,0,1,1,1.68,5.42,5.42,0,0,1,.36,1.94,5.19,5.19,0,0,1-.8,2.79,5.05,5.05,0,0,1-2.42,2,5.9,5.9,0,0,1,3.05,1.86A5.13,5.13,0,0,1,18.58,15.54ZM5.2,4.26V8.53h5.09A2.37,2.37,0,0,0,11.81,8a2,2,0,0,0,.67-1.63,2.06,2.06,0,0,0-.59-1.57,2,2,0,0,0-1.41-.55Zm8.1,10.32A2.36,2.36,0,0,0,12.7,13a2,2,0,0,0-1.52-.67h-6v4.51H11a2.36,2.36,0,0,0,1.67-.61A2.06,2.06,0,0,0,13.3,14.58Zm8.35,6.26V.18h5.19V16.65H37.73v4.19ZM50,21a11.21,11.21,0,0,1-8.07-3.27,10.58,10.58,0,0,1-2.26-3.36,9.81,9.81,0,0,1-.81-3.9,9.58,9.58,0,0,1,.84-3.93,10.47,10.47,0,0,1,2.34-3.33A11.47,11.47,0,0,1,50.1.07a11.21,11.21,0,0,1,8.08,3.28,10.72,10.72,0,0,1,2.24,3.38,9.82,9.82,0,0,1,.79,3.84,9.56,9.56,0,0,1-.84,3.92,10.3,10.3,0,0,1-2.32,3.33,11.55,11.55,0,0,1-3.55,2.32A11.41,11.41,0,0,1,50,21ZM44.15,10.54a7.26,7.26,0,0,0,.38,2.31,6,6,0,0,0,1.13,2,5.31,5.31,0,0,0,1.85,1.4,5.84,5.84,0,0,0,2.53.52,5.76,5.76,0,0,0,2.6-.55,5.58,5.58,0,0,0,1.83-1.44,5.94,5.94,0,0,0,1.09-2,7.07,7.07,0,0,0,.37-2.28,7.22,7.22,0,0,0-.38-2.31,5.58,5.58,0,0,0-1.14-2,5.65,5.65,0,0,0-1.85-1.37A5.91,5.91,0,0,0,50,4.31a5.77,5.77,0,0,0-2.58.54,5.6,5.6,0,0,0-1.83,1.41,5.73,5.73,0,0,0-1.11,2A7.47,7.47,0,0,0,44.15,10.54Zm18.77-.21a9.76,9.76,0,0,1,.76-3.7A10,10,0,0,1,65.9,3.32,11.23,11.23,0,0,1,69.44,1a11.9,11.9,0,0,1,4.75-.9,11.35,11.35,0,0,1,5.49,1.25,8.48,8.48,0,0,1,3.47,3.25l-4,2.57a4.34,4.34,0,0,0-1-1.36,5.18,5.18,0,0,0-1.28-.87,5.77,5.77,0,0,0-1.42-.47,8.84,8.84,0,0,0-1.43-.13,5.71,5.71,0,0,0-2.59.56,5.57,5.57,0,0,0-1.84,1.42,5.76,5.76,0,0,0-1.07,2,7.18,7.18,0,0,0-.35,2.24,6.78,6.78,0,0,0,.41,2.36,6,6,0,0,0,1.19,2,5.68,5.68,0,0,0,1.86,1.38,5.76,5.76,0,0,0,2.46.51,6.68,6.68,0,0,0,1.44-.16A6,6,0,0,0,77,16.11a5,5,0,0,0,1.25-.87,4,4,0,0,0,.92-1.33l4.24,2.3a6.13,6.13,0,0,1-1.5,2,9.44,9.44,0,0,1-2.3,1.51,12.54,12.54,0,0,1-2.75.93A13.46,13.46,0,0,1,74,21a10.81,10.81,0,0,1-4.48-.92A11.24,11.24,0,0,1,66,17.66a10.94,10.94,0,0,1-2.28-3.43A10,10,0,0,1,62.92,10.33ZM86,20.84V.18h5.19v8.9L99.41.18h5.83L96.82,9.4l9,11.44H99.89l-6.36-8.32-2.35,2.24v6.08Zm20.19-10.51a9.76,9.76,0,0,1,.76-3.7,10,10,0,0,1,2.22-3.31A11.23,11.23,0,0,1,112.7,1a11.94,11.94,0,0,1,4.75-.9,11.35,11.35,0,0,1,5.49,1.25,8.48,8.48,0,0,1,3.47,3.25l-4,2.57a4.16,4.16,0,0,0-1-1.36,5.23,5.23,0,0,0-1.29-.87,5.77,5.77,0,0,0-1.42-.47,8.82,8.82,0,0,0-1.42-.13,5.73,5.73,0,0,0-2.6.56,5.57,5.57,0,0,0-1.84,1.42,5.76,5.76,0,0,0-1.07,2,7.48,7.48,0,0,0-.35,2.24,7,7,0,0,0,.41,2.36,6.21,6.21,0,0,0,1.19,2,5.65,5.65,0,0,0,4.32,1.89,6.68,6.68,0,0,0,1.44-.16,6,6,0,0,0,1.42-.49,4.84,4.84,0,0,0,1.25-.87,4,4,0,0,0,.92-1.33l4.24,2.3a6.13,6.13,0,0,1-1.5,2,9.44,9.44,0,0,1-2.3,1.51,12.54,12.54,0,0,1-2.75.93,13.46,13.46,0,0,1-2.85.32,10.85,10.85,0,0,1-4.48-.92,11.24,11.24,0,0,1-3.51-2.43A10.94,10.94,0,0,1,107,14.23,10,10,0,0,1,106.18,10.33ZM148.59.18V20.84H143.4V12.37h-9v8.47h-5.19V.18h5.19v8h9v-8ZM159,.18h4.68l8.2,20.66h-5.32l-1.74-4.63h-7l-1.7,4.63h-5.32Zm5,12.74-2.62-7.3-2.69,7.3Zm10.13,7.92V.18h5.19V20.84ZM188.79,9V20.84H183.6V.18h4.05l10.47,12.13V.18h5.19V20.84h-4.17Zm18.83,11.81V.18h5.19V16.65h10.88v4.19ZM232.24.18h4.68l8.2,20.66H239.8l-1.74-4.63h-7l-1.71,4.63H224Zm5,12.74-2.63-7.3-2.69,7.3Zm28.7,2.62a4.42,4.42,0,0,1-.6,2.33,4.94,4.94,0,0,1-1.64,1.64,8,8,0,0,1-2.44,1,12.73,12.73,0,0,1-2.94.34h-11V.18h12.5A4.78,4.78,0,0,1,262,.65a5.13,5.13,0,0,1,1.61,1.21,5.18,5.18,0,0,1,1,1.68A5.42,5.42,0,0,1,265,5.48a5.19,5.19,0,0,1-.8,2.79,5.05,5.05,0,0,1-2.42,2,5.9,5.9,0,0,1,3.05,1.86A5.13,5.13,0,0,1,265.91,15.54ZM252.53,4.26V8.53h5.09A2.37,2.37,0,0,0,259.14,8a2,2,0,0,0,.67-1.63,2.06,2.06,0,0,0-.59-1.57,2,2,0,0,0-1.41-.55Zm8.1,10.32A2.36,2.36,0,0,0,260,13a2,2,0,0,0-1.52-.67h-6v4.51h5.76a2.36,2.36,0,0,0,1.67-.61A2.06,2.06,0,0,0,260.63,14.58Zm21.84-8.35a3.84,3.84,0,0,0-.67-.43,11.34,11.34,0,0,0-1.42-.67,14.65,14.65,0,0,0-1.87-.61,7.85,7.85,0,0,0-2-.26c-1.85,0-2.78.57-2.78,1.71a1.28,1.28,0,0,0,.3.87,2.42,2.42,0,0,0,.89.63,9.14,9.14,0,0,0,1.47.51l2.05.52a28.44,28.44,0,0,1,2.92.89,8.12,8.12,0,0,1,2.19,1.19,4.87,4.87,0,0,1,1.4,1.73,5.72,5.72,0,0,1,.49,2.45,5.78,5.78,0,0,1-.71,3,5.87,5.87,0,0,1-1.89,1.95,8.28,8.28,0,0,1-2.69,1.07,14,14,0,0,1-3.13.34,18.37,18.37,0,0,1-2.53-.18,17.44,17.44,0,0,1-2.53-.51,20.3,20.3,0,0,1-2.39-.8,13.36,13.36,0,0,1-2.14-1.07l2.28-4.16a4.18,4.18,0,0,0,.82.55,14.27,14.27,0,0,0,1.73.82,18.24,18.24,0,0,0,2.29.72,10.09,10.09,0,0,0,2.56.32c1.84,0,2.76-.51,2.76-1.54a1.25,1.25,0,0,0-.41-1,4,4,0,0,0-1.14-.68,11.69,11.69,0,0,0-1.73-.57l-2.17-.58a19.74,19.74,0,0,1-2.69-.95,7.37,7.37,0,0,1-1.88-1.17,4.43,4.43,0,0,1-1.11-1.55,5.29,5.29,0,0,1-.36-2A6.06,6.06,0,0,1,269,3.85a6.34,6.34,0,0,1,1.81-2.11,8.35,8.35,0,0,1,2.64-1.3A11.36,11.36,0,0,1,276.64,0a13.68,13.68,0,0,1,2.31.2,18.44,18.44,0,0,1,2.19.53,16.31,16.31,0,0,1,1.94.72c.6.27,1.16.55,1.66.82ZM288,20.84V16.09h4.15v4.75ZM301.2,9V20.84H296V.18h4.05l10.48,12.13V.18h5.19V20.84h-4.18Zm17.57,8.23L330.48,4.37H319.21V.18h17.25V3.76L325.32,16.65h11.26v4.19H318.77Z"/></svg>