<svg xmlns="http://www.w3.org/2000/svg" viewBox="0 0 16 16">
    <path fill="#FFF" d="M2.5,1A1.51,1.51,0,0,0,1,2.5v8A1.51,1.51,0,0,0,2.5,12H4v.5A1.51,1.51,0,0,0,5.5,14h8A1.51,1.51,0,0,0,15,12.5v-8A1.51,1.51,0,0,0,13.5,3H12V2.5A1.51,1.51,0,0,0,10.5,1Zm0,1h8a.5.5,0,0,1,.5.5v8a.5.5,0,0,1-.5.5h-8a.5.5,0,0,1-.5-.5v-8A.5.5,0,0,1,2.5,2ZM12,4h1.5a.5.5,0,0,1,.5.5v8a.5.5,0,0,1-.5.5h-8a.5.5,0,0,1-.5-.5V12h5.5A1.51,1.51,0,0,0,12,10.5Zm-4.49.79L4.83,7.48a2,2,0,0,1-.1-.21,2.25,2.25,0,0,1-.14-.78,2.19,2.19,0,0,1,.14-.77,2.15,2.15,0,0,1,.39-.64,2,2,0,0,1,.6-.43,2,2,0,0,1,.77-.15,1.77,1.77,0,0,1,.77.16A1.46,1.46,0,0,1,7.51,4.79ZM7.28,8.35a2,2,0,0,1-.77.15,1.83,1.83,0,0,1-1-.29L8.17,5.52a2,2,0,0,1,.1.21,2.25,2.25,0,0,1,.14.78,2.19,2.19,0,0,1-.14.77,2.15,2.15,0,0,1-.39.64A2,2,0,0,1,7.28,8.35Zm.4.83a3.23,3.23,0,0,0,.94-.63,2.93,2.93,0,0,0,.83-2.06,3,3,0,0,0-.54-1.71L10.66,3,10,2.35,8.21,4.1a3.15,3.15,0,0,0-.51-.28,3.08,3.08,0,0,0-1.19-.23,3,3,0,0,0-1.19.23,3.23,3.23,0,0,0-.94.63,2.89,2.89,0,0,0-.61.93,3.07,3.07,0,0,0-.22,1.13,3,3,0,0,0,.54,1.71L2.34,10l.69.69L4.79,8.9a2.78,2.78,0,0,0,.51.28,3.08,3.08,0,0,0,1.19.23A3,3,0,0,0,7.68,9.18Z"/>
</svg>