<svg xmlns="http://www.w3.org/2000/svg" viewBox="0 0 526 47" width="186" height="47"><path fill="#3F3CD8" fill-rule="evenodd" d="M514.33 45.27L514.33 26.87L505.2 37.47L501.53 37.47L492.47 26.87L492.47 45.27L481 45.27L481 0.48L484.67 0.48L503.4 23.34L522.12 0.48L525.79 0.48L525.79 45.27L514.33 45.27ZM464.32 40.77C462.59 42.48 460.54 43.79 458.16 44.7C455.78 45.61 453.2 46.06 450.4 46.06C447.6 46.06 445.01 45.61 442.63 44.7C440.25 43.79 438.2 42.48 436.47 40.77C434.73 39.06 433.38 37 432.4 34.6C431.42 32.2 430.94 29.54 430.94 26.6L430.94 1.28L442.4 1.28L442.4 27.47C442.4 30 443.14 31.98 444.63 33.4C446.12 34.82 448.04 35.54 450.4 35.54C452.75 35.54 454.67 34.82 456.16 33.4C457.65 31.98 458.39 30 458.39 27.47L458.39 1.28L469.86 1.28L469.86 26.6C469.86 29.54 469.37 32.2 468.39 34.6C467.41 37 466.06 39.06 464.32 40.77ZM388.8 1.28L419.32 1.28L419.32 11.61L400.26 11.61L400.26 17.67L413.86 17.67L413.86 27.27L400.26 27.27L400.26 34.94L420.12 34.94L420.12 45.27L388.8 45.27L388.8 1.28ZM367.52 45.27L357.59 31.6L352.86 31.6L352.86 45.27L341.4 45.27L341.4 1.28L358.66 1.28C361.06 1.28 363.3 1.64 365.39 2.35C367.48 3.06 369.28 4.06 370.79 5.34C372.3 6.63 373.49 8.22 374.35 10.11C375.22 12 375.65 14.1 375.65 16.41C375.65 19.21 375.03 21.67 373.79 23.81C372.54 25.94 370.85 27.65 368.72 28.94L380.32 45.27L367.52 45.27ZM362.56 12.68C361.6 11.74 360.32 11.28 358.72 11.28L352.86 11.28L352.86 21.61L358.72 21.61C360.32 21.61 361.6 21.13 362.56 20.17C363.51 19.22 363.99 17.96 363.99 16.41C363.99 14.85 363.51 13.61 362.56 12.68ZM300.33 1.28L330.85 1.28L330.85 11.61L311.79 11.61L311.79 17.67L325.38 17.67L325.38 27.27L311.79 27.27L311.79 34.94L331.65 34.94L331.65 45.27L300.33 45.27L300.33 1.28ZM261.39 22.94L261.39 45.27L249.93 45.27L249.93 0.48L253.59 0.48L277.45 23.34L277.45 1.28L288.91 1.28L288.91 46.06L285.25 46.06L261.39 22.94ZM217.22 46.04C204.64 46.04 194.44 35.84 194.44 23.26C194.44 10.68 204.64 0.48 217.22 0.48C229.79 0.48 239.99 10.68 239.99 23.26C239.99 35.84 229.79 46.04 217.22 46.04ZM217.22 11.05C210.46 11.05 204.99 16.53 204.99 23.28C204.99 30.04 210.46 35.51 217.22 35.51C223.97 35.51 229.45 30.04 229.45 23.28C229.45 16.53 223.97 11.05 217.22 11.05ZM210.65 23.27L217.22 13.96L223.78 23.27L217.22 32.58L210.65 23.27ZM176.94 42.57C175.11 43.66 173.1 44.51 170.9 45.13C168.71 45.75 166.38 46.06 163.94 46.06C160.56 46.06 157.42 45.49 154.51 44.33C151.6 43.18 149.07 41.58 146.91 39.53C144.76 37.49 143.07 35.08 141.85 32.3C140.62 29.53 140.01 26.52 140.01 23.27C140.01 20.03 140.62 17.02 141.85 14.24C143.07 11.47 144.76 9.05 146.91 7.01C149.07 4.97 151.6 3.37 154.51 2.21C157.42 1.06 160.56 0.48 163.94 0.48C168.03 0.48 171.67 1.32 174.87 3.01C178.07 4.7 180.73 7.12 182.87 10.28L174.87 17.07C173.49 15.16 171.93 13.68 170.17 12.61C168.42 11.54 166.27 11.01 163.74 11.01C161.87 11.01 160.2 11.31 158.71 11.91C157.22 12.51 155.96 13.34 154.94 14.41C153.92 15.47 153.13 16.76 152.58 18.27C152.02 19.79 151.74 21.45 151.74 23.27C151.74 25.14 152.03 26.85 152.61 28.4C153.19 29.96 154.02 31.28 155.11 32.37C156.2 33.46 157.53 34.31 159.11 34.94C160.68 35.56 162.45 35.87 164.41 35.87C166.54 35.87 168.42 35.52 170.04 34.84C171.66 34.15 173 33.18 174.07 31.94L174.07 29.87L163.81 29.87L163.81 20.01L185.53 20.01L185.53 33.87C184.56 35.6 183.33 37.21 181.87 38.7C180.4 40.19 178.76 41.48 176.94 42.57ZM122.82 41.6L107.03 41.6L105.43 45.27L93.1 45.27L113.09 0.48L116.76 0.48L136.75 45.27L124.42 45.27L122.82 41.6ZM114.96 22.27L111.09 32.4L118.75 32.4L114.96 22.27ZM75.99 45.27L66.06 31.6L61.32 31.6L61.32 45.27L49.86 45.27L49.86 1.28L67.12 1.28C69.52 1.28 71.76 1.64 73.85 2.35C75.94 3.06 77.74 4.06 79.25 5.34C80.76 6.63 81.95 8.22 82.82 10.11C83.68 12 84.12 14.1 84.12 16.41C84.12 19.21 83.49 21.67 82.25 23.81C81.01 25.94 79.32 27.65 77.19 28.94L88.78 45.27L75.99 45.27ZM71.02 12.68C70.07 11.74 68.79 11.28 67.19 11.28L61.32 11.28L61.32 21.61L67.19 21.61C68.79 21.61 70.07 21.13 71.02 20.17C71.98 19.22 72.45 17.96 72.45 16.41C72.45 14.85 71.98 13.61 71.02 12.68ZM33.1 39.17C30.95 41.1 28.4 42.6 25.47 43.67C22.54 44.73 19.38 45.27 16.01 45.27L0.68 45.27L0.68 1.28L16.01 1.28C19.38 1.28 22.54 1.78 25.47 2.78C28.4 3.78 30.95 5.22 33.1 7.11C35.26 9 36.94 11.3 38.17 14.01C39.39 16.72 40 19.76 40 23.14C40 26.47 39.39 29.49 38.17 32.2C36.94 34.91 35.26 37.23 33.1 39.17ZM27.3 18.04C26.66 16.6 25.79 15.41 24.7 14.48C23.61 13.54 22.31 12.84 20.81 12.38C19.29 11.91 17.67 11.68 15.94 11.68L12.14 11.68L12.14 34.94L15.94 34.94C17.67 34.94 19.29 34.67 20.81 34.14C22.31 33.6 23.61 32.84 24.7 31.84C25.79 30.84 26.66 29.6 27.3 28.14C27.95 26.67 28.27 25.01 28.27 23.14C28.27 21.18 27.95 19.48 27.3 18.04Z"/></svg>