<svg xmlns="http://www.w3.org/2000/svg" width="312" height="299">
    <defs>
        <linearGradient id="a" x1="0%" y1="0%" y2="0%">
            <stop offset="0%" stop-color="#F5FAFF"/>
            <stop offset="100%" stop-color="#E3EEFD"/>
        </linearGradient>
        <filter id="b" width="147" height="126" x="102" y="74" filterUnits="userSpaceOnUse">
            <feOffset in="SourceAlpha"/>
            <feGaussianBlur result="blurOut" stdDeviation="7.071"/>
            <feFlood flood-color="#FFF" result="floodOut"/>
            <feComposite in="floodOut" in2="blurOut" operator="atop"/>
            <feComponentTransfer>
                <feFuncA type="linear"/>
            </feComponentTransfer>
            <feMerge>
                <feMergeNode/>
                <feMergeNode in="SourceGraphic"/>
            </feMerge>
        </filter>
        <linearGradient id="c" x1="0%" x2="0%" y1="100%" y2="0%">
            <stop offset="0%" stop-color="#FFF"/>
            <stop offset="100%" stop-color="#FFF" stop-opacity="0"/>
        </linearGradient>
        <filter id="d" width="147" height="126" x="39" y="110" filterUnits="userSpaceOnUse">
            <feOffset in="SourceAlpha"/>
            <feGaussianBlur result="blurOut" stdDeviation="7.071"/>
            <feFlood flood-color="#FFF" result="floodOut"/>
            <feComposite in="floodOut" in2="blurOut" operator="atop"/>
            <feComponentTransfer>
                <feFuncA type="linear"/>
            </feComponentTransfer>
            <feMerge>
                <feMergeNode/>
                <feMergeNode in="SourceGraphic"/>
            </feMerge>
        </filter>
        <filter id="e" width="147" height="126" x="165" y="110" filterUnits="userSpaceOnUse">
            <feOffset in="SourceAlpha"/>
            <feGaussianBlur result="blurOut" stdDeviation="7.071"/>
            <feFlood flood-color="#FFF" result="floodOut"/>
            <feComposite in="floodOut" in2="blurOut" operator="atop"/>
            <feComponentTransfer>
                <feFuncA type="linear"/>
            </feComponentTransfer>
            <feMerge>
                <feMergeNode/>
                <feMergeNode in="SourceGraphic"/>
            </feMerge>
        </filter>
        <filter id="f" width="147" height="127" x="102" y="146" filterUnits="userSpaceOnUse">
            <feOffset in="SourceAlpha"/>
            <feGaussianBlur result="blurOut" stdDeviation="7.071"/>
            <feFlood flood-color="#FFF" result="floodOut"/>
            <feComposite in="floodOut" in2="blurOut" operator="atop"/>
            <feComponentTransfer>
                <feFuncA type="linear"/>
            </feComponentTransfer>
            <feMerge>
                <feMergeNode/>
                <feMergeNode in="SourceGraphic"/>
            </feMerge>
        </filter>
        <filter id="g" width="147" height="127" x="102" y="0" filterUnits="userSpaceOnUse">
            <feOffset in="SourceAlpha"/>
            <feGaussianBlur result="blurOut" stdDeviation="7.071"/>
            <feFlood flood-color="#FFF" result="floodOut"/>
            <feComposite in="floodOut" in2="blurOut" operator="atop"/>
            <feComponentTransfer>
                <feFuncA type="linear"/>
            </feComponentTransfer>
            <feMerge>
                <feMergeNode/>
                <feMergeNode in="SourceGraphic"/>
            </feMerge>
        </filter>
        <filter id="h" width="147" height="127" x="39" y="36" filterUnits="userSpaceOnUse">
            <feOffset in="SourceAlpha"/>
            <feGaussianBlur result="blurOut" stdDeviation="7.071"/>
            <feFlood flood-color="#FFF" result="floodOut"/>
            <feComposite in="floodOut" in2="blurOut" operator="atop"/>
            <feComponentTransfer>
                <feFuncA type="linear"/>
            </feComponentTransfer>
            <feMerge>
                <feMergeNode/>
                <feMergeNode in="SourceGraphic"/>
            </feMerge>
        </filter>
        <filter id="i" width="147" height="127" x="165" y="36" filterUnits="userSpaceOnUse">
            <feOffset in="SourceAlpha"/>
            <feGaussianBlur result="blurOut" stdDeviation="7.071"/>
            <feFlood flood-color="#FFF" result="floodOut"/>
            <feComposite in="floodOut" in2="blurOut" operator="atop"/>
            <feComponentTransfer>
                <feFuncA type="linear"/>
            </feComponentTransfer>
            <feMerge>
                <feMergeNode/>
                <feMergeNode in="SourceGraphic"/>
            </feMerge>
        </filter>
        <filter id="j" width="147" height="126" x="102" y="73" filterUnits="userSpaceOnUse">
            <feOffset in="SourceAlpha"/>
            <feGaussianBlur result="blurOut" stdDeviation="7.071"/>
            <feFlood flood-color="#FFF" result="floodOut"/>
            <feComposite in="floodOut" in2="blurOut" operator="atop"/>
            <feComponentTransfer>
                <feFuncA type="linear"/>
            </feComponentTransfer>
            <feMerge>
                <feMergeNode/>
                <feMergeNode in="SourceGraphic"/>
            </feMerge>
        </filter>
        <filter id="k">
            <feFlood flood-color="#ACD0FF" flood-opacity="1" result="floodOut"/>
            <feComposite in="floodOut" in2="SourceGraphic" operator="atop" result="compOut"/>
            <feBlend in="compOut" in2="SourceGraphic"/>
        </filter>
    </defs>
    <path fill="#3F3CD8" fill-rule="evenodd" d="M226.125 192.438v4.349c.077.78-.387 1.573-1.429 2.169l-46.638 26.668c-1.941 1.109-5.087 1.109-7.028 0l-46.638-26.668c-.905-.517-1.37-1.185-1.431-1.862h-.18v-4.656h.033c-.112-.802.346-1.625 1.42-2.238l46.704-26.681c1.943-1.111 5.094-1.111 7.037 0L224.68 190.2c1.073.613 1.532 1.436 1.419 2.238h.026z"/>
    <path fill="#4A47FF" fill-rule="evenodd" d="M174.469 162.688v63.687h1.194c-1.614.213-3.375-.032-4.633-.751l-46.638-26.668c-.905-.517-1.37-1.185-1.431-1.862h-.18v-4.656h.033c-.112-.802.346-1.625 1.42-2.238l46.704-26.681c.979-.559 2.264-.836 3.547-.831h-.016z"/>
    <path fill="#F5FAFF" fill-rule="evenodd" d="M226.125 136.656v55.481c.002.049.002.097 0 .146v.155h-.026c-.091.649-.55 1.285-1.419 1.782l-46.705 26.68c-1.943 1.111-5.094 1.111-7.037 0l-46.704-26.68c-.87-.497-1.328-1.133-1.42-1.782h-.033v-.197-55.585h.036c-.122-.807.335-1.638 1.417-2.256l46.704-26.681c1.943-1.11 5.094-1.11 7.037 0L224.68 134.4c1.081.618 1.539 1.449 1.416 2.256h.029z"/>
    <path fill="url(#a)" d="M226.125 136.656v55.481c.002.049.002.097 0 .146v.155h-.026c-.091.649-.55 1.285-1.419 1.782l-46.705 26.68c-1.943 1.111-5.094 1.111-7.037 0l-46.704-26.68c-.87-.497-1.328-1.133-1.42-1.782h-.033v-.197-55.585h.036c-.122-.807.335-1.638 1.417-2.256l46.704-26.681c1.943-1.11 5.094-1.11 7.037 0L224.68 134.4c1.081.618 1.539 1.449 1.416 2.256h.029z"/>
    <path fill="#F5FAFF" fill-rule="evenodd" d="M174.937 221.707c-1.429.079-2.905-.181-3.999-.807l-46.704-26.68c-.87-.497-1.328-1.133-1.42-1.782h-.033v-.197-55.585h.036c-.122-.807.335-1.638 1.417-2.256l46.704-26.681c1.943-1.11 5.094-1.11 7.037 0L224.68 134.4c1.081.618 1.539 1.449 1.416 2.256h-51.159v85.051z"/>
    <path fill="#3F3CD8" fill-rule="evenodd" d="M124.234 134.4l46.704-26.681c1.943-1.11 5.094-1.11 7.037 0L224.68 134.4c1.943 1.11 1.943 2.91 0 4.021l-46.705 26.68c-1.943 1.11-5.094 1.11-7.037 0l-46.704-26.68c-1.944-1.111-1.944-2.911 0-4.021z"/>
    <path fill="#FFF" fill-rule="evenodd" d="M152.301 135.509l21.038-11.975c.876-.498 2.295-.498 3.17 0l21.038 11.975c.876.498.876 1.306 0 1.804l-21.038 11.975c-.875.498-2.294.498-3.17 0l-21.038-11.975c-.875-.498-.875-1.306 0-1.804z" filter="url(#b)"/>
    <path fill="none" d="M198.162 136.656c-.083.241-.287.471-.615.657l-21.038 11.975c-.875.498-2.294.498-3.17 0l-21.038-11.975c-.327-.186-.532-.416-.614-.657h-.031v-.176a.795.795 0 0 1 0-.138V92.469h46.563v44.187h-.057z" opacity=".6"/>
    <path fill="url(#c)" d="M198.162 136.656c-.083.241-.287.471-.615.657l-21.038 11.975c-.875.498-2.294.498-3.17 0l-21.038-11.975c-.327-.186-.532-.416-.614-.657h-.031v-.176a.795.795 0 0 1 0-.138V92.469h46.563v44.187h-.057z"/>
    <path fill="#3F3CD8" fill-rule="evenodd" d="M163.281 228.719v4.37a1.55 1.55 0 0 1 0 .255v.031h-.005c-.066.673-.53 1.336-1.429 1.851l-46.638 26.667c-1.941 1.11-5.087 1.11-7.028 0l-46.639-26.667c-.899-.515-1.363-1.178-1.428-1.851h-.177v-4.656h.03c-.119-.806.339-1.634 1.417-2.25l46.705-26.681c1.943-1.11 5.094-1.11 7.037 0l46.704 26.681c1.079.616 1.537 1.444 1.418 2.25h.033z"/>
    <path fill="#4A47FF" fill-rule="evenodd" d="M111.625 262.656h1.12c-1.595.197-3.325-.054-4.564-.763l-46.639-26.667c-.899-.515-1.363-1.178-1.428-1.851h-.177v-4.656h.03c-.119-.806.339-1.634 1.417-2.25l46.705-26.681c.976-.557 2.257-.834 3.536-.831v63.699z"/>
    <path fill="#F5FAFF" fill-rule="evenodd" d="M163.281 172.906v55.813h-.033c-.095.645-.553 1.277-1.418 1.771l-46.704 26.68c-1.943 1.11-5.094 1.11-7.037 0l-46.705-26.68c-.864-.494-1.322-1.126-1.417-1.771h-.03v-.177a2.646 2.646 0 0 1 0-.126v-55.51h.028c-.112-.801.346-1.623 1.419-2.236l46.705-26.681c1.943-1.11 5.094-1.11 7.037 0l46.704 26.681c1.073.613 1.532 1.435 1.42 2.236h.031z"/>
    <path fill="url(#a)" d="M163.281 172.906v55.813h-.033c-.095.645-.553 1.277-1.418 1.771l-46.704 26.68c-1.943 1.11-5.094 1.11-7.037 0l-46.705-26.68c-.864-.494-1.322-1.126-1.417-1.771h-.03v-.177a2.646 2.646 0 0 1 0-.126v-55.51h.028c-.112-.801.346-1.623 1.419-2.236l46.705-26.681c1.943-1.11 5.094-1.11 7.037 0l46.704 26.681c1.073.613 1.532 1.435 1.42 2.236h.031z"/>
    <path fill="#F5FAFF" fill-rule="evenodd" d="M112.062 257.978c-1.421.074-2.885-.186-3.973-.808l-46.705-26.68c-.864-.494-1.322-1.126-1.417-1.771h-.03v-.177a2.646 2.646 0 0 1 0-.126v-55.51h.028c-.112-.801.346-1.623 1.419-2.236l46.705-26.681c1.943-1.11 5.094-1.11 7.037 0l46.704 26.681c1.073.613 1.532 1.435 1.42 2.236h-51.188v85.072z"/>
    <path fill="#3F3CD8" fill-rule="evenodd" d="M61.384 170.67l46.705-26.681c1.943-1.11 5.094-1.11 7.037 0l46.704 26.681c1.944 1.11 1.944 2.91 0 4.02l-46.704 26.681c-1.943 1.11-5.094 1.11-7.037 0L61.384 174.69c-1.943-1.11-1.943-2.91 0-4.02z"/>
    <path fill="#FFF" fill-rule="evenodd" d="M89.452 171.778l21.038-11.975c.875-.498 2.295-.498 3.17 0l21.038 11.975c.875.499.875 1.307 0 1.805l-21.038 11.975c-.875.498-2.295.498-3.17 0l-21.038-11.975c-.875-.498-.875-1.306 0-1.805z" filter="url(#d)"/>
    <path fill="none" d="M135.344 172.744v.162h-.027c-.078.248-.283.485-.619.677l-21.038 11.975c-.875.498-2.295.498-3.17 0l-21.038-11.975c-.336-.192-.541-.429-.618-.677h-.021v-.125a.677.677 0 0 1 0-.201v-43.83h46.531v43.866a.684.684 0 0 1 0 .128z" opacity=".6"/>
    <path fill="url(#c)" d="M135.344 172.744v.162h-.027c-.078.248-.283.485-.619.677l-21.038 11.975c-.875.498-2.295.498-3.17 0l-21.038-11.975c-.336-.192-.541-.429-.618-.677h-.021v-.125a.677.677 0 0 1 0-.201v-43.83h46.531v43.866a.684.684 0 0 1 0 .128z"/>
    <path fill="#3F3CD8" fill-rule="evenodd" d="M289 233.211v.164h-.026c-.065.673-.529 1.336-1.429 1.851l-46.638 26.667c-1.941 1.11-5.087 1.11-7.028 0l-46.638-26.667c-.9-.515-1.363-1.178-1.429-1.851h-.187v-4.656h.04c-.118-.806.339-1.634 1.418-2.25l46.704-26.681c1.943-1.11 5.094-1.11 7.037 0l46.705 26.681c1.079.616 1.536 1.444 1.417 2.25H289v4.492z"/>
    <path fill="#4A47FF" fill-rule="evenodd" d="M237.313 262.656h1.13c-1.595.197-3.324-.054-4.564-.763l-46.638-26.667c-.9-.515-1.363-1.178-1.429-1.851h-.187v-4.656h.04c-.118-.806.339-1.634 1.418-2.25l46.704-26.681c.973-.556 2.25-.833 3.526-.832v63.7z"/>
    <path fill="#F5FAFF" fill-rule="evenodd" d="M289 228.719h-.054c-.095.645-.553 1.277-1.417 1.771l-46.705 26.68c-1.943 1.11-5.094 1.11-7.037 0l-46.704-26.68c-.865-.494-1.322-1.126-1.418-1.771h-.04v-55.813h.038c-.112-.801.347-1.623 1.42-2.236l46.704-26.681c1.943-1.11 5.094-1.11 7.037 0l46.705 26.681c1.073.613 1.531 1.435 1.419 2.236H289v55.813z"/>
    <path fill="url(#a)" d="M289 228.719h-.054c-.095.645-.553 1.277-1.417 1.771l-46.705 26.68c-1.943 1.11-5.094 1.11-7.037 0l-46.704-26.68c-.865-.494-1.322-1.126-1.418-1.771h-.04v-55.813h.038c-.112-.801.347-1.623 1.42-2.236l46.704-26.681c1.943-1.11 5.094-1.11 7.037 0l46.705 26.681c1.073.613 1.531 1.435 1.419 2.236H289v55.813z"/>
    <path fill="#F5FAFF" fill-rule="evenodd" d="M237.781 257.977c-1.427.078-2.901-.182-3.994-.807l-46.704-26.68c-.865-.494-1.322-1.126-1.418-1.771h-.04v-55.813h.038c-.112-.801.347-1.623 1.42-2.236l46.704-26.681c1.943-1.11 5.094-1.11 7.037 0l46.705 26.681c1.073.613 1.531 1.435 1.419 2.236h-51.167v85.071z"/>
    <path fill="#3F3CD8" fill-rule="evenodd" d="M187.083 170.67l46.704-26.681c1.943-1.11 5.094-1.11 7.037 0l46.705 26.681c1.943 1.11 1.943 2.91 0 4.02l-46.705 26.681c-1.943 1.11-5.094 1.11-7.037 0l-46.704-26.681c-1.944-1.11-1.944-2.91 0-4.02z"/>
    <path fill="#FFF" fill-rule="evenodd" d="M215.15 171.778l21.038-11.975c.876-.498 2.295-.498 3.17 0l21.038 11.975c.876.499.876 1.307 0 1.805l-21.038 11.975c-.875.498-2.294.498-3.17 0l-21.038-11.975c-.875-.498-.875-1.306 0-1.805z" filter="url(#e)"/>
    <path fill="none" d="M261.031 172.809v.097h-.016c-.078.248-.282.485-.619.677l-21.038 11.975c-.875.498-2.294.498-3.17 0l-21.038-11.975c-.336-.192-.54-.429-.618-.677h-.032v-.189a.889.889 0 0 1 0-.073V128.75h46.531v43.802a.74.74 0 0 1 0 .257z" opacity=".6"/>
    <path fill="url(#c)" d="M261.031 172.809v.097h-.016c-.078.248-.282.485-.619.677l-21.038 11.975c-.875.498-2.294.498-3.17 0l-21.038-11.975c-.336-.192-.54-.429-.618-.677h-.032v-.189a.889.889 0 0 1 0-.073V128.75h46.531v43.802a.74.74 0 0 1 0 .257z"/>
    <path fill="#3F3CD8" fill-rule="evenodd" d="M226.125 264.969v4.357c.077.78-.387 1.574-1.429 2.169l-46.638 26.668c-1.941 1.11-5.087 1.11-7.028 0l-46.638-26.668c-.909-.519-1.374-1.19-1.433-1.87h-.178v-4.656h.032c-.108-.799.351-1.619 1.421-2.23l46.704-26.681c1.943-1.11 5.094-1.11 7.037 0l46.705 26.681c1.07.611 1.529 1.431 1.42 2.23h.025z"/>
    <path fill="#4A47FF" fill-rule="evenodd" d="M174.469 298.938h1.057c-1.575.18-3.274-.077-4.496-.775l-46.638-26.668c-.909-.519-1.374-1.19-1.433-1.87h-.178v-4.656h.032c-.108-.799.351-1.619 1.421-2.23l46.704-26.681c.975-.557 2.253-.834 3.531-.832v63.712z"/>
    <path fill="#F5FAFF" fill-rule="evenodd" d="M226.125 209.187v55.489c.002.049.002.097 0 .146v.147h-.025c-.088.652-.547 1.291-1.42 1.79l-46.705 26.681c-1.943 1.11-5.094 1.11-7.037 0l-46.704-26.681c-.874-.499-1.333-1.138-1.421-1.79h-.032v-.189V209.187h.035c-.118-.805.339-1.632 1.418-2.248l46.704-26.681c1.943-1.109 5.094-1.109 7.037 0l46.705 26.681c1.078.616 1.535 1.443 1.417 2.248h.028z"/>
    <path fill="url(#a)" d="M226.125 209.187v55.489c.002.049.002.097 0 .146v.147h-.025c-.088.652-.547 1.291-1.42 1.79l-46.705 26.681c-1.943 1.11-5.094 1.11-7.037 0l-46.704-26.681c-.874-.499-1.333-1.138-1.421-1.79h-.032v-.189V209.187h.035c-.118-.805.339-1.632 1.418-2.248l46.704-26.681c1.943-1.109 5.094-1.109 7.037 0l46.705 26.681c1.078.616 1.535 1.443 1.417 2.248h.028z"/>
    <path fill="#F5FAFF" fill-rule="evenodd" d="M174.937 294.246c-1.429.079-2.905-.181-3.999-.806l-46.704-26.681c-.874-.499-1.333-1.138-1.421-1.79h-.032v-.189V209.187h.035c-.118-.805.339-1.632 1.418-2.248l46.704-26.681c1.943-1.109 5.094-1.109 7.037 0l46.705 26.681c1.078.616 1.535 1.443 1.417 2.248h-51.16v85.059z"/>
    <path fill="#3F3CD8" fill-rule="evenodd" d="M124.234 206.939l46.704-26.681c1.943-1.109 5.094-1.109 7.037 0l46.705 26.681c1.943 1.11 1.943 2.91 0 4.021l-46.705 26.681c-1.943 1.11-5.094 1.11-7.037 0l-46.704-26.681c-1.944-1.111-1.944-2.911 0-4.021z"/>
    <path fill="#FFF" fill-rule="evenodd" d="M152.301 208.048l21.038-11.975c.876-.498 2.295-.498 3.17 0l21.038 11.975c.876.498.876 1.306 0 1.804l-21.038 11.975c-.875.498-2.294.498-3.17 0l-21.038-11.975c-.875-.498-.875-1.306 0-1.804z" filter="url(#f)"/>
    <path fill="none" d="M198.164 209.187c-.081.244-.286.477-.617.665l-21.038 11.975c-.875.498-2.294.498-3.17 0l-21.038-11.975c-.331-.188-.536-.421-.616-.665h-.029v-.168a.795.795 0 0 1 0-.138V165h46.563v44.187h-.055z" opacity=".6"/>
    <path fill="url(#c)" d="M198.164 209.187c-.081.244-.286.477-.617.665l-21.038 11.975c-.875.498-2.294.498-3.17 0l-21.038-11.975c-.331-.188-.536-.421-.616-.665h-.029v-.168a.795.795 0 0 1 0-.138V165h46.563v44.187h-.055z"/>
    <path fill="#3F3CD8" fill-rule="evenodd" d="M226.125 118.969v4.349c.077.779-.387 1.573-1.429 2.169l-46.638 26.667c-1.941 1.11-5.087 1.11-7.028 0l-46.638-26.667c-.905-.518-1.37-1.185-1.431-1.862h-.18v-4.656h.033c-.113-.802.346-1.625 1.42-2.239l46.704-26.68c1.943-1.111 5.094-1.111 7.037 0l46.705 26.68c1.074.614 1.532 1.437 1.419 2.239h.026z"/>
    <path fill="#4A47FF" fill-rule="evenodd" d="M174.469 89.219v63.718h.973c-1.552.163-3.212-.097-4.412-.783l-46.638-26.667c-.905-.518-1.37-1.185-1.431-1.862h-.18v-4.656h.033c-.113-.802.346-1.625 1.42-2.239l46.704-26.68c.981-.561 2.269-.837 3.555-.831h-.024z"/>
    <path fill="#F5FAFF" fill-rule="evenodd" d="M226.125 63.188v55.479c.002.049.002.097 0 .146v.156h-.026c-.092.649-.55 1.285-1.419 1.782l-46.705 26.68c-1.943 1.111-5.094 1.111-7.037 0l-46.704-26.68c-.87-.497-1.328-1.133-1.42-1.782h-.033v-.198-55.583h.036c-.122-.808.335-1.639 1.417-2.257l46.704-26.681c1.943-1.11 5.094-1.11 7.037 0l46.705 26.681c1.082.618 1.539 1.449 1.416 2.257h.029z"/>
    <path fill="url(#a)" d="M226.125 63.188v55.479c.002.049.002.097 0 .146v.156h-.026c-.092.649-.55 1.285-1.419 1.782l-46.705 26.68c-1.943 1.111-5.094 1.111-7.037 0l-46.704-26.68c-.87-.497-1.328-1.133-1.42-1.782h-.033v-.198-55.583h.036c-.122-.808.335-1.639 1.417-2.257l46.704-26.681c1.943-1.11 5.094-1.11 7.037 0l46.705 26.681c1.082.618 1.539 1.449 1.416 2.257h.029z"/>
    <path fill="#F5FAFF" fill-rule="evenodd" d="M174.937 148.238c-1.429.079-2.905-.181-3.999-.807l-46.704-26.68c-.87-.497-1.328-1.133-1.42-1.782h-.033v-.198-55.583h.036c-.122-.808.335-1.639 1.417-2.257l46.704-26.681c1.943-1.11 5.094-1.11 7.037 0l46.705 26.681c1.082.618 1.539 1.449 1.416 2.257h-51.159v85.05z"/>
    <path fill="#3F3CD8" fill-rule="evenodd" d="M124.234 60.931l46.704-26.681c1.943-1.11 5.094-1.11 7.037 0l46.705 26.681c1.943 1.11 1.943 2.91 0 4.02l-46.705 26.681c-1.943 1.11-5.094 1.11-7.037 0l-46.704-26.681c-1.944-1.11-1.944-2.91 0-4.02z"/>
    <path fill="#FFF" fill-rule="evenodd" d="M152.301 62.039l21.038-11.975c.876-.498 2.295-.498 3.17 0l21.038 11.975c.876.499.876 1.306 0 1.805l-21.038 11.975c-.875.498-2.294.498-3.17 0l-21.038-11.975c-.875-.499-.875-1.306 0-1.805z" filter="url(#g)"/>
    <path fill="none" d="M198.161 63.188c-.082.24-.287.47-.614.656l-21.038 11.975c-.875.498-2.294.498-3.17 0l-21.038-11.975c-.327-.186-.531-.416-.614-.656h-.031v-.178a.784.784 0 0 1 0-.137V19h46.563v44.188h-.058z" opacity=".6"/>
    <path fill="url(#c)" d="M198.161 63.188c-.082.24-.287.47-.614.656l-21.038 11.975c-.875.498-2.294.498-3.17 0l-21.038-11.975c-.327-.186-.531-.416-.614-.656h-.031v-.178a.784.784 0 0 1 0-.137V19h46.563v44.188h-.058z"/>
    <path fill="#3F3CD8" fill-rule="evenodd" d="M163.281 155.25v4.37c.007.085.007.169 0 .254v.032h-.005c-.066.673-.53 1.336-1.429 1.85l-46.638 26.668c-1.941 1.11-5.087 1.11-7.028 0l-46.639-26.668c-.899-.514-1.362-1.177-1.428-1.85h-.177v-4.656h.03c-.119-.806.338-1.634 1.417-2.25l46.705-26.681c1.943-1.11 5.094-1.11 7.037 0L161.83 153c1.08.616 1.537 1.444 1.418 2.25h.033z"/>
    <path fill="#4A47FF" fill-rule="evenodd" d="M111.625 125.5v63.688h1.117c-1.594.196-3.322-.056-4.561-.764l-46.639-26.668c-.899-.514-1.362-1.177-1.428-1.85h-.177v-4.656h.03c-.119-.806.338-1.634 1.417-2.25l46.705-26.681c1.034-.591 2.41-.857 3.765-.819h-.229z"/>
    <path fill="#F5FAFF" fill-rule="evenodd" d="M163.281 99.437v55.813h-.033c-.096.645-.553 1.276-1.418 1.77l-46.704 26.681c-1.943 1.11-5.094 1.11-7.037 0L61.384 157.02c-.864-.494-1.321-1.125-1.417-1.77h-.03v-.177a2.646 2.646 0 0 1 0-.126v-55.51h.028c-.112-.801.346-1.623 1.419-2.236l46.705-26.681c1.943-1.111 5.094-1.111 7.037 0l46.704 26.681c1.074.613 1.532 1.435 1.42 2.236h.031z"/>
    <path fill="url(#a)" d="M163.281 99.437v55.813h-.033c-.096.645-.553 1.276-1.418 1.77l-46.704 26.681c-1.943 1.11-5.094 1.11-7.037 0L61.384 157.02c-.864-.494-1.321-1.125-1.417-1.77h-.03v-.177a2.646 2.646 0 0 1 0-.126v-55.51h.028c-.112-.801.346-1.623 1.419-2.236l46.705-26.681c1.943-1.111 5.094-1.111 7.037 0l46.704 26.681c1.074.613 1.532 1.435 1.42 2.236h.031z"/>
    <path fill="#F5FAFF" fill-rule="evenodd" d="M112.062 184.509c-1.421.074-2.885-.187-3.973-.808L61.384 157.02c-.864-.494-1.321-1.125-1.417-1.77h-.03v-.177a2.646 2.646 0 0 1 0-.126v-55.51h.028c-.112-.801.346-1.623 1.419-2.236l46.705-26.681c1.943-1.111 5.094-1.111 7.037 0l46.704 26.681c1.074.613 1.532 1.435 1.42 2.236h-51.188v85.072z"/>
    <path fill="#3F3CD8" fill-rule="evenodd" d="M61.384 97.201l46.705-26.681c1.943-1.111 5.094-1.111 7.037 0l46.704 26.681c1.944 1.11 1.944 2.91 0 4.02l-46.704 26.68c-1.943 1.111-5.094 1.111-7.037 0l-46.705-26.68c-1.943-1.11-1.943-2.91 0-4.02z"/>
    <path fill="#FFF" fill-rule="evenodd" d="M89.452 98.309l21.038-11.975c.875-.498 2.295-.498 3.17 0l21.038 11.975c.875.498.875 1.306 0 1.804l-21.038 11.975c-.875.499-2.295.499-3.17 0l-21.038-11.975c-.875-.498-.875-1.306 0-1.804z" filter="url(#h)"/>
    <path fill="none" d="M135.344 99.275v.162h-.028c-.078.248-.282.485-.618.676l-21.038 11.975c-.875.499-2.295.499-3.17 0l-21.038-11.975c-.336-.191-.54-.428-.618-.676h-.021v-.125a.684.684 0 0 1 0-.202V55.281h46.531v43.866a.684.684 0 0 1 0 .128z" opacity=".6"/>
    <path fill="url(#c)" d="M135.344 99.275v.162h-.028c-.078.248-.282.485-.618.676l-21.038 11.975c-.875.499-2.295.499-3.17 0l-21.038-11.975c-.336-.191-.54-.428-.618-.676h-.021v-.125a.684.684 0 0 1 0-.202V55.281h46.531v43.866a.684.684 0 0 1 0 .128z"/>
    <path fill="#3F3CD8" fill-rule="evenodd" d="M289 159.742v.164h-.026c-.066.673-.529 1.336-1.429 1.85l-46.638 26.668c-1.941 1.11-5.087 1.11-7.028 0l-46.638-26.668c-.899-.514-1.363-1.177-1.429-1.85h-.187v-4.656h.041c-.12-.806.338-1.634 1.417-2.25l46.704-26.681c1.943-1.11 5.094-1.11 7.037 0L287.529 153c1.079.616 1.536 1.444 1.417 2.25H289v4.492z"/>
    <path fill="#4A47FF" fill-rule="evenodd" d="M237.313 125.5v63.688h1.127c-1.594.196-3.322-.056-4.561-.764l-46.638-26.668c-.899-.514-1.363-1.177-1.429-1.85h-.187v-4.656h.041c-.12-.806.338-1.634 1.417-2.25l46.704-26.681c1.035-.591 2.41-.857 3.765-.819h-.239z"/>
    <path fill="#F5FAFF" fill-rule="evenodd" d="M289 155.25h-.054c-.095.645-.553 1.276-1.417 1.77l-46.705 26.681c-1.943 1.11-5.094 1.11-7.037 0l-46.704-26.681c-.864-.494-1.322-1.125-1.417-1.77h-.041V99.437h.038c-.112-.801.347-1.623 1.42-2.236l46.704-26.681c1.943-1.111 5.094-1.111 7.037 0l46.705 26.681c1.073.613 1.531 1.435 1.419 2.236H289v55.813z"/>
    <path fill="url(#a)" d="M289 155.25h-.054c-.095.645-.553 1.276-1.417 1.77l-46.705 26.681c-1.943 1.11-5.094 1.11-7.037 0l-46.704-26.681c-.864-.494-1.322-1.125-1.417-1.77h-.041V99.437h.038c-.112-.801.347-1.623 1.42-2.236l46.704-26.681c1.943-1.111 5.094-1.111 7.037 0l46.705 26.681c1.073.613 1.531 1.435 1.419 2.236H289v55.813z"/>
    <path fill="#F5FAFF" fill-rule="evenodd" d="M237.781 184.507c-1.427.079-2.901-.182-3.994-.806l-46.704-26.681c-.864-.494-1.322-1.125-1.417-1.77h-.041V99.437h.038c-.112-.801.347-1.623 1.42-2.236l46.704-26.681c1.943-1.111 5.094-1.111 7.037 0l46.705 26.681c1.073.613 1.531 1.435 1.419 2.236h-51.167v85.07z"/>
    <path fill="#3F3CD8" fill-rule="evenodd" d="M187.083 97.201l46.704-26.681c1.943-1.111 5.094-1.111 7.037 0l46.705 26.681c1.943 1.11 1.943 2.91 0 4.02l-46.705 26.68c-1.943 1.111-5.094 1.111-7.037 0l-46.704-26.68c-1.944-1.11-1.944-2.91 0-4.02z"/>
    <path fill="#FFF" fill-rule="evenodd" d="M215.15 98.309l21.038-11.975c.876-.498 2.295-.498 3.17 0l21.038 11.975c.876.498.876 1.306 0 1.804l-21.038 11.975c-.875.499-2.294.499-3.17 0l-21.038-11.975c-.875-.498-.875-1.306 0-1.804z" filter="url(#i)"/>
    <path fill="none" d="M261.031 99.34v.097h-.016c-.078.248-.283.485-.619.676l-21.038 11.975c-.875.499-2.294.499-3.17 0l-21.038-11.975c-.336-.191-.54-.428-.618-.676h-.032v-.189a.888.888 0 0 1 0-.073V55.281h46.531v43.802a.74.74 0 0 1 0 .257z" opacity=".6"/>
    <path fill="url(#c)" d="M261.031 99.34v.097h-.016c-.078.248-.283.485-.619.676l-21.038 11.975c-.875.499-2.294.499-3.17 0l-21.038-11.975c-.336-.191-.54-.428-.618-.676h-.032v-.189a.888.888 0 0 1 0-.073V55.281h46.531v43.802a.74.74 0 0 1 0 .257z"/>
    <path fill="#3F3CD8" fill-rule="evenodd" d="M226.125 191.5v4.357c.077.78-.387 1.573-1.429 2.169l-46.638 26.667c-1.941 1.11-5.087 1.11-7.028 0l-46.638-26.667c-.908-.519-1.374-1.19-1.432-1.87h-.179V191.5h.032c-.109-.799.35-1.619 1.421-2.23l46.704-26.681c1.943-1.11 5.094-1.11 7.037 0l46.705 26.681c1.07.611 1.529 1.431 1.42 2.23h.025z"/>
    <path fill="#4A47FF" fill-rule="evenodd" d="M174.469 225.469h1.054c-1.574.18-3.272-.077-4.493-.776l-46.638-26.667c-.908-.519-1.374-1.19-1.432-1.87h-.179V191.5h.032c-.109-.799.35-1.619 1.421-2.23l46.704-26.681c.975-.557 2.253-.834 3.531-.832v63.712z"/>
    <path fill="#F5FAFF" fill-rule="evenodd" d="M226.125 135.719v55.488c.002.049.002.097 0 .145v.148h-.025c-.088.652-.547 1.291-1.42 1.79l-46.705 26.681c-1.943 1.11-5.094 1.11-7.037 0l-46.704-26.681c-.874-.499-1.332-1.138-1.421-1.79h-.032v-.189V135.719h.035c-.118-.805.339-1.633 1.418-2.249l46.704-26.681c1.943-1.11 5.094-1.11 7.037 0l46.705 26.681c1.078.616 1.536 1.444 1.417 2.249h.028z"/>
    <path fill="url(#a)" d="M226.125 135.719v55.488c.002.049.002.097 0 .145v.148h-.025c-.088.652-.547 1.291-1.42 1.79l-46.705 26.681c-1.943 1.11-5.094 1.11-7.037 0l-46.704-26.681c-.874-.499-1.332-1.138-1.421-1.79h-.032v-.189V135.719h.035c-.118-.805.339-1.633 1.418-2.249l46.704-26.681c1.943-1.11 5.094-1.11 7.037 0l46.705 26.681c1.078.616 1.536 1.444 1.417 2.249h.028z"/>
    <path fill="#F5FAFF" fill-rule="evenodd" d="M174.937 220.777c-1.429.079-2.905-.181-3.999-.806l-46.704-26.681c-.874-.499-1.332-1.138-1.421-1.79h-.032v-.189V135.719h.035c-.118-.805.339-1.633 1.418-2.249l46.704-26.681c1.943-1.11 5.094-1.11 7.037 0l46.705 26.681c1.078.616 1.536 1.444 1.417 2.249h-51.16v85.058z"/>
    <path fill="#3F3CD8" fill-rule="evenodd" d="M124.234 133.47l46.704-26.681c1.943-1.11 5.094-1.11 7.037 0l46.705 26.681c1.943 1.11 1.943 2.91 0 4.02l-46.705 26.681c-1.943 1.111-5.094 1.111-7.037 0l-46.704-26.681c-1.944-1.11-1.944-2.91 0-4.02z"/>
    <path fill="#FFF" fill-rule="evenodd" d="M152.301 134.579l21.038-11.975c.876-.498 2.295-.498 3.17 0l21.038 11.975c.876.498.876 1.306 0 1.804l-21.038 11.975c-.875.498-2.294.498-3.17 0l-21.038-11.975c-.875-.498-.875-1.306 0-1.804z" filter="url(#j)"/>
    <path fill="none" d="M198.164 135.719c-.081.243-.286.476-.617.664l-21.038 11.975c-.875.498-2.294.498-3.17 0l-21.038-11.975c-.331-.188-.536-.421-.616-.664h-.029v-.169a.795.795 0 0 1 0-.138V91.531h46.563v44.188h-.055z" opacity=".6"/>
    <path fill="url(#c)" d="M198.164 135.719c-.081.243-.286.476-.617.664l-21.038 11.975c-.875.498-2.294.498-3.17 0l-21.038-11.975c-.331-.188-.536-.421-.616-.664h-.029v-.169a.795.795 0 0 1 0-.138V91.531h46.563v44.188h-.055z"/>
    <path fill="#3F3CD8" fill-rule="evenodd" d="M101.147 128.934l-32.528-18.616c-1.859-1.063-3.366-.426-3.366 1.424v40.186c0 1.849 1.507 4.211 3.366 5.274l32.528 18.616c1.859 1.064 3.365.426 3.365-1.423v-40.186c0-1.85-1.506-4.212-3.365-5.275z"/>
    <path fill="#FFF" fill-rule="evenodd" d="M96.1 168.133c-.62-.359-1.122-1.15-1.122-1.766v-33.489c0-.616.502-.825 1.122-.466.619.359 1.121 1.15 1.121 1.766v33.489c0 .617-.502.825-1.121.466zm-11.217-6.501c-.62-.36-1.122-1.151-1.122-1.767v-33.489c0-.616.502-.825 1.122-.466.619.359 1.122 1.15 1.122 1.767v33.488c0 .617-.503.826-1.122.467zm-11.217-6.502c-.619-.36-1.122-1.15-1.122-1.767v-33.488c0-.617.503-.825 1.122-.466.62.359 1.122 1.15 1.122 1.766v33.489c0 .616-.502.825-1.122.466z" opacity=".2"/>
    <path fill="#FFF" fill-rule="evenodd" d="M97.782 164.643l-3.365-1.95c-.929-.539-1.682-1.725-1.682-2.65 0-.925.753-1.238 1.682-.699l3.365 1.951c.929.538 1.683 1.724 1.683 2.649s-.754 1.238-1.683.699zm-11.217-17.664l-3.365-1.951c-.929-.539-1.682-1.725-1.682-2.649 0-.925.753-1.238 1.682-.699l3.365 1.95c.93.539 1.683 1.725 1.683 2.649 0 .925-.753 1.238-1.683.7zm-11.217-17.665l-3.364-1.95c-.93-.539-1.683-1.725-1.683-2.65 0-.925.753-1.238 1.683-.699l3.364 1.95c.93.539 1.683 1.725 1.683 2.65 0 .925-.753 1.238-1.683.699z"/>
    <path fill="#C6DDF9" fill-rule="evenodd" d="M26.906 231.969c14.86 0 26.906 6.499 26.906 14.515 0 8.017-12.046 14.516-26.906 14.516S0 254.501 0 246.484c0-8.016 12.046-14.515 26.906-14.515z" opacity=".4"/>
    <path fill="#7674FA" fill-rule="evenodd" d="M38.598 251.722s-4.515 2.107-5.849-.581c-1.333-2.688-.584-5.226-.584-5.226s9.776-5.487 12.281-2.904c3.705 4.038-5.848 8.711-5.848 8.711zm-21.958-7.787s-4.546 2.16-5.889-.595c-1.342-2.754-.588-5.356-.588-5.356s9.843-5.624 12.365-2.976c3.73 4.138-5.888 8.927-5.888 8.927z"/>
    <path fill="#3F3CD8" fill-rule="evenodd" d="M39.767 189.006s.942 8.031 1.17 29.036c0 37.023-5.931 33.68-7.018 33.68-3.378 0-2.055-28.504-2.339-31.358-.284-2.853-3.4-18.582-7.018-18.582-5.824 0-4.163 41.81-12.866 41.81-3.636 0 .388-26.558 0-32.519-1.35-12.221 0-29.035 0-29.035l28.071 6.968z"/>
    <path fill="#3F3CD8" fill-rule="evenodd" d="M9.577 141.386s-5.652 15.357-3.931 22.541c4.205 17.548 10.148 23.919 10.148 23.919l-6.217-46.46z"/>
    <path fill="#265CE8" fill-rule="evenodd" d="M70.178 137.324c3.429-6.993 8.389-8.117 6.318-9.3-3.357-1.918-6.572.653-9.242 2.912-3.411 2.886-.805 8.409 2.924 6.388z" filter="url(#k)"/>
    <path fill="#7674FA" fill-rule="evenodd" d="M29.888 141.319s-7.521-4.161-11.353-4.524c-3.832-.362-6.609 1.66-7.72 2.757-1.112 1.098-4.428 8.234-1.363 17.6 2.297 7.018 2.971 25.805 2.53 25.006 1.915 3.471 7.839 5.842 9.959 6.586 11.28 3.965 18.276.772 18.166 1.131.322-1.05-1.704-13.309-1.509-15.386 1.876-19.997-.328-27.19-4.094-30.196-2.138-1.707-4.616-2.974-4.616-2.974z"/>
    <path fill="#7674FA" fill-rule="evenodd" d="M36.843 156.487c-3.554-.919-9.985-17.145-2.924-12.194 2.964 2.077 5.882 1.848 6.433 1.742 4.307-.833 9.542-1.647 14.036-3.484 6.775-2.772 10.599-8.406 10.599-8.406s5.763-.055 5.686 3.375c-.013.59-5.909 7.994-13.655 12.925-8.163 5.196-17.962 6.615-20.175 6.042z"/>
    <path fill="#B4D8FF" fill-rule="evenodd" d="M35.435 125.706s.972 8.21-1.085 9.044c-2.056.837-4.851 1.884-4.6 3.406.25 1.522 0 3.406 0 3.406s-.219 1.266-3.451 2.271c-3.231 1.005-4.371.207-5.75-1.135-2.769-2.696-.067-5.253-.067-5.253s2.477-1.817 2.367-3.829c-.059-1.088 2.41-6.092 5.807-7.906 2.887-1.541 6.779-.004 6.779-.004z"/>
    <path fill="#3F3CD8" fill-rule="evenodd" d="M36.247 120.461s1.337 2.956 0 4.455-5.156 2.404-6.529 2.931c-1.468.565-2.133 4.359-3.455 5.748-.868.911-3.14 1.205-4.574.23-2.507-1.706-4.257-13.414 1.12-15.59 9.248-3.745 13.438 2.226 13.438 2.226z"/>
</svg>
