<?xml version="1.0" encoding="utf-8"?>
<!-- Generator: Adobe Illustrator 22.0.1, SVG Export Plug-In . SVG Version: 6.00 Build 0)  -->
<svg version="1.1" id="Layer_1" xmlns="http://www.w3.org/2000/svg" xmlns:xlink="http://www.w3.org/1999/xlink" x="0px" y="0px"
	 viewBox="0 0 1000 1000" style="enable-background:new 0 0 1000 1000;" xml:space="preserve">
<style type="text/css">
	.st0{fill:url(#SVGID_1_);}
	.st1{fill:#FFFFFF;}
</style>
<linearGradient id="SVGID_1_" gradientUnits="userSpaceOnUse" x1="498.8136" y1="56.0665" x2="498.8136" y2="952.878">
	<stop  offset="9.736761e-03" style="stop-color:#6172B0"/>
	<stop  offset="8.145397e-02" style="stop-color:#495B9E"/>
	<stop  offset="8.759291e-02" style="stop-color:#485A9D"/>
	<stop  offset="0.3744" style="stop-color:#2F4387"/>
	<stop  offset="0.5461" style="stop-color:#253A7E"/>
	<stop  offset="1" style="stop-color:#20326E"/>
</linearGradient>
<circle class="st0" cx="498.8" cy="504.5" r="448.4"/>
<g>
	<g>
		<path class="st1" d="M505.2,484c0,0,66.1,16.3,118.5-24.9c52.4-41.1,50.7-103.2,50.7-103.2s-59.2-18.4-113.1,20.8
			C507.5,415.9,505.2,484,505.2,484z"/>
		<path class="st1" d="M505,515c0,0,10.8,46.5,53.1,66.3c42.4,19.7,80.7-1,80.7-1s-7.2-42.9-48.9-64.2C548.3,494.9,505,515,505,515z
			"/>
		<path class="st1" d="M604.6,494.9c0,0,22.9,25.4,56.2,23.1c33.4-2.3,50.2-28.5,50.2-28.5s-19.4-24.4-52.8-23.3
			C624.7,467.2,604.6,494.9,604.6,494.9z"/>
		<path class="st1" d="M571.2,334.5c0,0-35.2-58.2-101.4-66.2c-66.1-7.9-108.8,37.1-108.8,37.1s28.9,54.9,94.7,65.3
			S571.2,334.5,571.2,334.5z"/>
		<path class="st1" d="M593.3,312.7c0,0,25.3-40.5,9.3-84.4c-16-43.9-57.7-56.4-57.7-56.4s-25.2,35.5-10.8,79.9
			S593.3,312.7,593.3,312.7z"/>
		<path class="st1" d="M508.6,256.5c0,0,1.8-34.1-23.4-56.1c-25.2-22-55.7-15.3-55.7-15.3s-3.5,31,20.9,53.8
			C474.8,261.8,508.6,256.5,508.6,256.5z"/>
		<path class="st1" d="M449.2,414.5c0,0-58.2,35.2-66.2,101.4c-7.9,66.1,37.1,108.8,37.1,108.8s54.9-28.9,65.3-94.7
			S449.2,414.5,449.2,414.5z"/>
		<path class="st1" d="M427.5,392.4c0,0-40.5-25.3-84.4-9.3c-43.9,16-56.4,57.7-56.4,57.7s35.5,25.2,79.9,10.8
			C411.1,437.3,427.5,392.4,427.5,392.4z"/>
		<path class="st1" d="M371.3,477.1c0,0-34.1-1.8-56.1,23.4c-22,25.2-15.3,55.7-15.3,55.7s31,3.5,53.8-20.9
			C376.5,510.9,371.3,477.1,371.3,477.1z"/>
	</g>
	<g>
		<path class="st1" d="M306.4,682.5H336l81.3,136.4h-29L306.4,682.5z M306.4,818.9V691.6l29.4,49.3l1.4,78H306.4z M386.8,682.5h30.5
			v126.3l-29.4-49.5L386.8,682.5z"/>
		<path class="st1" d="M447,818.9V682.5h30.9v136.4H447z M482.8,762.3v-33.6l43.1-46.2h39.8l-62.4,61.8l65.5,74.6h-38.1L482.8,762.3
			z"/>
		<path class="st1" d="M580.3,682.5h29.6l81.3,136.4h-29L580.3,682.5z M580.3,818.9V691.6l29.4,49.3l1.4,78H580.3z M660.7,682.5
			h30.5v126.3l-29.4-49.5L660.7,682.5z"/>
	</g>
</g>
</svg>
